<svg width="100.000000" height="100.000000" viewBox="0 0 100 100" fill="none" xmlns="http://www.w3.org/2000/svg" xmlns:xlink="http://www.w3.org/1999/xlink">
	<desc>
			Created with Pixso.
	</desc>
	<defs>
		<clipPath id="clip1_376">
			<rect id="product-description 1" width="100.000000" height="100.000000" fill="white" fill-opacity="0"/>
		</clipPath>
	</defs>
	<rect id="product-description 1" width="100.000000" height="100.000000" fill="#FFFFFF" fill-opacity="0"/>
	<g clip-path="url(#clip1_376)">
		<path id="Vector" d="M74.95 10.8722C55.7389 11.2305 42.3611 1.52496 33.1028 1.69998C23.8445 1.87497 4.50281 7.55829 5.30005 50.1444C6.09723 92.7305 32.3667 98.4889 42.55 98.3C90.2278 97.4083 108.969 10.2361 74.95 10.8722Z" fill="#EFEFEF" fill-opacity="1.000000" fill-rule="nonzero"/>
		<path id="Vector" d="M18.3491 9.46973L22.2774 5.54135L24.2416 7.50555L20.3132 11.4339L18.3491 9.46973Z" fill="#A4AFC1" fill-opacity="1.000000" fill-rule="nonzero"/>
		<path id="Vector" d="M7.05463 20.7623L10.985 16.832L12.9492 18.7962L9.0188 22.7265L7.05463 20.7623Z" fill="#A4AFC1" fill-opacity="1.000000" fill-rule="nonzero"/>
		<path id="Vector" d="M7.05798 7.01562L9.02216 5.05145L12.9525 8.98178L10.9883 10.946L7.05798 7.01562Z" fill="#A4AFC1" fill-opacity="1.000000" fill-rule="nonzero"/>
		<path id="Vector" d="M92.3028 42.8973C90.0056 42.8973 88.1361 41.0279 88.1361 38.7306C88.1361 36.4334 90.0056 34.564 92.3028 34.564C94.6 34.564 96.4695 36.4334 96.4695 38.7306C96.4695 41.0279 94.6 42.8973 92.3028 42.8973ZM92.3028 37.3417C91.5389 37.3417 90.9139 37.964 90.9139 38.7306C90.9139 39.4973 91.5389 40.1195 92.3028 40.1195C93.0667 40.1195 93.6917 39.4973 93.6917 38.7306C93.6917 37.964 93.0667 37.3417 92.3028 37.3417Z" fill="#A4AFC1" fill-opacity="1.000000" fill-rule="nonzero"/>
		<path id="Vector" d="M78.4722 31.25L21.5278 31.25C19.9944 31.25 18.75 30.0056 18.75 28.4722L18.75 21.5278C18.75 19.9944 19.9944 18.75 21.5278 18.75L78.4722 18.75C80.0056 18.75 81.25 19.9944 81.25 21.5278L81.25 28.4722C81.25 30.0056 80.0056 31.25 78.4722 31.25Z" fill="#EE4248" fill-opacity="1.000000" fill-rule="nonzero"/>
		<path id="Vector" d="M75 56.25C71.5472 56.25 68.75 53.4528 68.75 50C68.75 46.5472 71.5472 43.75 75 43.75C78.4528 43.75 81.25 46.5472 81.25 50C81.25 53.4528 78.4528 56.25 75 56.25Z" fill="#EE4248" fill-opacity="1.000000" fill-rule="nonzero"/>
		<path id="Vector" d="M75 81.25C71.5472 81.25 68.75 78.4528 68.75 75C68.75 71.5472 71.5472 68.75 75 68.75C78.4528 68.75 81.25 71.5472 81.25 75C81.25 78.4528 78.4528 81.25 75 81.25Z" fill="#EE4248" fill-opacity="1.000000" fill-rule="nonzero"/>
		<path id="Vector" d="M25 28.4722L25 21.5278C25 19.9944 26.2444 18.75 27.7778 18.75L21.5278 18.75C19.9944 18.75 18.75 19.9944 18.75 21.5278L18.75 28.4722C18.75 30.0056 19.9944 31.25 21.5278 31.25L27.7778 31.25C26.2444 31.25 25 30.0056 25 28.4722Z" fill="#D5DBE1" fill-opacity="1.000000" fill-rule="nonzero"/>
		<path id="Vector" d="M75 50C75 47.6917 76.2639 45.7 78.125 44.6167C77.2028 44.0806 76.1444 43.75 75 43.75C71.5472 43.75 68.75 46.5472 68.75 50C68.75 53.4528 71.5472 56.25 75 56.25C76.1444 56.25 77.2028 55.9194 78.125 55.3833C76.2639 54.3 75 52.3083 75 50Z" fill="#EE4248" fill-opacity="1.000000" fill-rule="nonzero"/>
		<path id="Vector" d="M75 75C75 72.6917 76.2639 70.7 78.125 69.6167C77.2028 69.0806 76.1444 68.75 75 68.75C71.5472 68.75 68.75 71.5472 68.75 75C68.75 78.4528 71.5472 81.25 75 81.25C76.1444 81.25 77.2028 80.9194 78.125 80.3833C76.2639 79.3 75 77.3083 75 75Z" fill="#EE4248" fill-opacity="1.000000" fill-rule="nonzero"/>
		<path id="Vector" d="M78.4722 33.3334L21.5278 33.3334C18.8472 33.3334 16.6667 31.1529 16.6667 28.4723L16.6667 21.5279C16.6667 18.8473 18.8472 16.6667 21.5278 16.6667L78.4722 16.6667C81.1528 16.6667 83.3333 18.8473 83.3333 21.5279L83.3333 28.4723C83.3333 31.1529 81.1528 33.3334 78.4722 33.3334ZM21.5278 20.8334C21.1445 20.8334 20.8333 21.1445 20.8333 21.5279L20.8333 28.4723C20.8333 28.8557 21.1445 29.1667 21.5278 29.1667L78.4722 29.1667C78.8556 29.1667 79.1667 28.8557 79.1667 28.4723L79.1667 21.5279C79.1667 21.1445 78.8556 20.8334 78.4722 20.8334L21.5278 20.8334Z" fill="#000000" fill-opacity="1.000000" fill-rule="nonzero"/>
		<path id="Vector" d="M18.75 44.4445L59.0278 44.4445L59.0278 48.6111L18.75 48.6111L18.75 44.4445Z" fill="#000000" fill-opacity="1.000000" fill-rule="nonzero"/>
		<path id="Vector" d="M18.75 52.7778L59.0278 52.7778L59.0278 56.9445L18.75 56.9445L18.75 52.7778Z" fill="#000000" fill-opacity="1.000000" fill-rule="nonzero"/>
		<path id="Vector" d="M18.75 69.4445L59.0278 69.4445L59.0278 73.6111L18.75 73.6111L18.75 69.4445Z" fill="#000000" fill-opacity="1.000000" fill-rule="nonzero"/>
		<path id="Vector" d="M18.75 77.7778L59.0278 77.7778L59.0278 81.9445L18.75 81.9445L18.75 77.7778Z" fill="#000000" fill-opacity="1.000000" fill-rule="nonzero"/>
		<path id="Vector" d="M75 58.3334C70.4056 58.3334 66.6667 54.5945 66.6667 50.0001C66.6667 45.4056 70.4056 41.6667 75 41.6667C79.5945 41.6667 83.3334 45.4056 83.3334 50.0001C83.3334 54.5945 79.5945 58.3334 75 58.3334ZM75 45.8334C72.7028 45.8334 70.8333 47.7029 70.8333 50.0001C70.8333 52.2973 72.7028 54.1667 75 54.1667C77.2972 54.1667 79.1667 52.2973 79.1667 50.0001C79.1667 47.7029 77.2972 45.8334 75 45.8334Z" fill="#000000" fill-opacity="1.000000" fill-rule="nonzero"/>
		<path id="Vector" d="M75 83.3334C70.4056 83.3334 66.6667 79.5945 66.6667 75.0001C66.6667 70.4056 70.4056 66.6667 75 66.6667C79.5945 66.6667 83.3334 70.4056 83.3334 75.0001C83.3334 79.5945 79.5945 83.3334 75 83.3334ZM75 70.8334C72.7028 70.8334 70.8333 72.7029 70.8333 75.0001C70.8333 77.2973 72.7028 79.1667 75 79.1667C77.2972 79.1667 79.1667 77.2973 79.1667 75.0001C79.1667 72.7029 77.2972 70.8334 75 70.8334Z" fill="#000000" fill-opacity="1.000000" fill-rule="nonzero"/>
	</g>
</svg>
