<svg width="100.000000" height="100.000000" viewBox="0 0 100 100" fill="none" xmlns="http://www.w3.org/2000/svg" xmlns:xlink="http://www.w3.org/1999/xlink">
	<desc>
			Created with Pixso.
	</desc>
	<defs>
		<clipPath id="clip1_320">
			<rect id="verified 1" width="100.000000" height="100.000000" fill="white" fill-opacity="0"/>
		</clipPath>
	</defs>
	<rect id="verified 1" width="100.000000" height="100.000000" fill="#FFFFFF" fill-opacity="0"/>
	<g clip-path="url(#clip1_320)">
		<path id="Vector" d="M88.4251 23.2694C88.4251 42.4833 98.3778 55.6778 98.3778 64.9361C98.3778 74.1944 93.0556 93.6389 50.464 93.6389C7.87228 93.6389 1.61951 67.4805 1.61951 57.2972C1.61951 9.61108 88.4251 -10.7584 88.4251 23.2694Z" fill="#EFEFEF" fill-opacity="1.000000" fill-rule="nonzero"/>
		<path id="Vector" d="M9.71385 16.6666C8.7944 16.6666 7.90274 16.3638 7.16385 15.7888C6.28607 15.1055 5.72496 14.1194 5.58885 13.0166C5.44997 11.9138 5.74997 10.8222 6.43329 9.94162C7.11662 9.06384 8.10274 8.50275 9.20552 8.36661C10.3027 8.22217 11.4 8.52774 12.2805 9.21106C13.1611 9.89441 13.7194 10.8805 13.8555 11.9833C13.9944 13.0861 13.6916 14.1805 13.0111 15.0583C12.3277 15.9361 11.3416 16.4972 10.2388 16.6333C10.0639 16.6555 9.88885 16.6666 9.71385 16.6666ZM9.72218 11.1111C9.66385 11.1111 9.60829 11.1138 9.54996 11.1222C8.79163 11.2166 8.24997 11.9138 8.34441 12.6722C8.43886 13.4305 9.13052 13.9694 9.89441 13.8777C10.6527 13.7833 11.1944 13.0861 11.1 12.3277C11.0111 11.6277 10.4138 11.1111 9.72218 11.1111Z" fill="#A4AFC1" fill-opacity="1.000000" fill-rule="nonzero"/>
		<path id="Vector" d="M75.6944 75.6944L24.3056 75.6944C21.2361 75.6944 18.75 73.2083 18.75 70.1389L18.75 28.4722L81.25 28.4722L81.25 70.1389C81.25 73.2083 78.7639 75.6944 75.6944 75.6944Z" fill="#F3F3F1" fill-opacity="1.000000" fill-rule="nonzero"/>
		<path id="Vector" d="M81.25 28.4722L18.75 28.4722L18.75 24.3056C18.75 21.2361 21.2361 18.75 24.3056 18.75L75.6944 18.75C78.7639 18.75 81.25 21.2361 81.25 24.3056L81.25 28.4722Z" fill="#EE4248" fill-opacity="1.000000" fill-rule="nonzero"/>
		<path id="Vector" d="M81.25 65.2778C81.25 74.099 74.099 81.25 65.2778 81.25C56.4566 81.25 49.3055 74.099 49.3055 65.2778C49.3055 56.4565 56.4566 49.3055 65.2778 49.3055C74.099 49.3055 81.25 56.4565 81.25 65.2778Z" fill="#EE4248" fill-opacity="1.000000" fill-rule="evenodd"/>
		<path id="Vector" d="M70.1389 38.1945L29.8611 38.1945L29.8611 50.6945L70.1667 50.6945L70.1389 38.1945Z" fill="#EE4248" fill-opacity="1.000000" fill-rule="nonzero"/>
		<path id="Vector" d="M30.5556 18.75L24.3056 18.75C21.2361 18.75 18.75 21.2361 18.75 24.3056L18.75 28.4722L25 28.4722L25 24.3056C25 21.2361 27.4861 18.75 30.5556 18.75Z" fill="#EE4248" fill-opacity="1.000000" fill-rule="nonzero"/>
		<path id="Vector" d="M55.5555 65.2778C55.5555 57.5278 61.0778 51.0694 68.4028 49.6166C67.3917 49.4167 66.3472 49.3055 65.2778 49.3055C56.4555 49.3055 49.3055 56.4555 49.3055 65.2778C49.3055 74.1 56.4555 81.25 65.2778 81.25C66.3472 81.25 67.3917 81.1417 68.4028 80.9389C61.0778 79.4861 55.5555 73.0278 55.5555 65.2778Z" fill="#EE4248" fill-opacity="1.000000" fill-rule="nonzero"/>
		<path id="Vector" d="M29.8611 38.1945L36.1111 38.1945L36.1111 50.6945L29.8611 50.6945L29.8611 38.1945Z" fill="#EE4248" fill-opacity="1.000000" fill-rule="nonzero"/>
		<path id="Vector" d="M25 70.1389L25 28.4722L18.75 28.4722L18.75 70.1389C18.75 73.2083 21.2361 75.6944 24.3056 75.6944L30.5556 75.6944C27.4861 75.6944 25 73.2083 25 70.1389Z" fill="#D5DBE1" fill-opacity="1.000000" fill-rule="nonzero"/>
		<path id="Vector" d="M65.2777 83.3333C55.3222 83.3333 47.2222 75.2333 47.2222 65.2777C47.2222 55.3222 55.3222 47.2222 65.2777 47.2222C75.2333 47.2222 83.3333 55.3222 83.3333 65.2777C83.3333 75.2333 75.2333 83.3333 65.2777 83.3333ZM65.2777 51.3888C57.6194 51.3888 51.3888 57.6194 51.3888 65.2777C51.3888 72.9361 57.6194 79.1666 65.2777 79.1666C72.9361 79.1666 79.1666 72.9361 79.1666 65.2777C79.1666 57.6194 72.9361 51.3888 65.2777 51.3888Z" fill="#000000" fill-opacity="1.000000" fill-rule="nonzero"/>
		<path id="Vector" d="M62.5 72.9167C61.9472 72.9167 61.4166 72.6972 61.0277 72.3055L55.4722 66.75L58.4194 63.8028L62.4 67.7833L70.6555 58.35L73.7916 61.0944L64.0694 72.2055C63.6888 72.6389 63.1472 72.8972 62.5694 72.9167C62.5472 72.9167 62.5222 72.9167 62.5 72.9167Z" fill="#000000" fill-opacity="1.000000" fill-rule="nonzero"/>
		<path id="Vector" d="M45.8612 52.7777L29.8612 52.7777C28.7112 52.7777 27.7778 51.8444 27.7778 50.6944L27.7778 38.1944C27.7778 37.0444 28.7112 36.1111 29.8612 36.1111L70.139 36.1111C71.289 36.1111 72.2223 37.0444 72.2223 38.1944L72.2223 41.4722L68.0556 41.4722L68.0556 40.2777L31.9445 40.2777L31.9445 48.6111L45.8612 48.6111L45.8612 52.7777Z" fill="#000000" fill-opacity="1.000000" fill-rule="nonzero"/>
		<path id="Vector" d="M27.9166 56.9166L43.8889 56.9166L43.8889 61.0833L27.9166 61.0833L27.9166 56.9166Z" fill="#000000" fill-opacity="1.000000" fill-rule="nonzero"/>
		<path id="Vector" d="M27.9166 65.25L43.1666 65.25L43.1666 69.4167L27.9166 69.4167L27.9166 65.25Z" fill="#000000" fill-opacity="1.000000" fill-rule="nonzero"/>
		<path id="Vector" d="M43.3055 77.7777L24.3055 77.7777C20.0916 77.7777 16.6666 74.3527 16.6666 70.1389L16.6666 24.3055C16.6666 20.0916 20.0916 16.6666 24.3055 16.6666L75.6944 16.6666C79.9083 16.6666 83.3333 20.0916 83.3333 24.3055L83.3333 47L79.1666 47L79.1666 24.3055C79.1666 22.3916 77.6083 20.8333 75.6944 20.8333L24.3055 20.8333C22.3916 20.8333 20.8333 22.3916 20.8333 24.3055L20.8333 70.1389C20.8333 72.0527 22.3916 73.6111 24.3055 73.6111L43.3055 73.6111L43.3055 77.7777Z" fill="#000000" fill-opacity="1.000000" fill-rule="nonzero"/>
		<path id="Vector" d="M18.75 26.3889L81.25 26.3889L81.25 30.5556L18.75 30.5556L18.75 26.3889Z" fill="#000000" fill-opacity="1.000000" fill-rule="nonzero"/>
	</g>
</svg>
