<svg width="100.000000" height="100.000000" viewBox="0 0 100 100" fill="none" xmlns="http://www.w3.org/2000/svg" xmlns:xlink="http://www.w3.org/1999/xlink">
	<desc>
			Created with Pixso.
	</desc>
	<defs>
		<clipPath id="clip1_344">
			<rect id="cogwheel 1" width="100.000000" height="100.000000" fill="white" fill-opacity="0"/>
		</clipPath>
	</defs>
	<rect id="cogwheel 1" width="100.000000" height="100.000000" fill="#FFFFFF" fill-opacity="0"/>
	<g clip-path="url(#clip1_344)">
		<path id="Vector" d="M23.2694 88.4249C42.4833 88.4249 55.6778 98.3777 64.9361 98.3777C74.1944 98.3777 93.6389 93.0555 93.6389 50.4638C93.6389 7.87216 67.4805 1.61938 57.2972 1.61938C9.6111 1.61938 -10.7583 88.4249 23.2694 88.4249Z" fill="#EFEFEF" fill-opacity="1.000000" fill-rule="nonzero"/>
		<path id="Vector" d="M88.8005 21.3403L90.7647 19.3762L94.6931 23.3045L92.7289 25.2687L88.8005 21.3403Z" fill="#A4AFC1" fill-opacity="1.000000" fill-rule="nonzero"/>
		<path id="Vector" d="M77.5079 10.0459L79.4721 8.08173L83.4005 12.0101L81.4363 13.9743L77.5079 10.0459Z" fill="#A4AFC1" fill-opacity="1.000000" fill-rule="nonzero"/>
		<path id="Vector" d="M88.8018 12.5027L92.7302 8.57431L94.6944 10.5385L90.766 14.4669L88.8018 12.5027Z" fill="#A4AFC1" fill-opacity="1.000000" fill-rule="nonzero"/>
		<path id="Vector" d="M54.8611 72.9166C54.8611 72.9166 55.5416 77.8194 58.9722 81.25L59.0277 81.25L40.9722 81.25C44.4444 77.7777 45.0833 72.9166 45.0833 72.9166L54.8611 72.9166Z" fill="#EE4248" fill-opacity="1.000000" fill-rule="nonzero"/>
		<path id="Vector" d="M78.4722 29.8611C80 29.8611 81.25 31.1111 81.25 32.6389L81.25 63.1944L18.75 63.1944L18.75 32.6389C18.75 31.1111 20 29.8611 21.5278 29.8611L78.4722 29.8611Z" fill="#F3F3F1" fill-opacity="1.000000" fill-rule="nonzero"/>
		<path id="Vector" d="M21.5278 72.9167L78.4722 72.9167C80.0056 72.9167 81.25 71.6722 81.25 70.1389L81.25 63.1945L18.75 63.1945L18.75 70.1389C18.75 71.6722 19.9944 72.9167 21.5278 72.9167Z" fill="#EE4248" fill-opacity="1.000000" fill-rule="nonzero"/>
		<path id="Vector" d="M77.0834 31.9444C77.0834 36.1633 73.6634 39.5833 69.4445 39.5833C65.2257 39.5833 61.8057 36.1633 61.8057 31.9444C61.8057 27.7256 65.2257 24.3055 69.4445 24.3055C73.6634 24.3055 77.0834 27.7256 77.0834 31.9444Z" fill="#EE4248" fill-opacity="1.000000" fill-rule="evenodd"/>
		<path id="Vector" d="M32.7889 56.25C29.6306 56.25 27.0834 53.8306 27.0834 50.8333C27.0834 47.8361 29.6334 45.4167 32.7889 45.4167L32.8917 45.4167C33.5 41.325 37.1917 38.1945 41.6667 38.1945C45.2167 38.1945 48.2862 40.1695 49.6945 43.0334C53.3584 43.225 56.2501 46.1028 56.2501 49.6306C56.2501 53.2889 53.1306 56.25 49.2751 56.25L32.7889 56.25Z" fill="#EE4248" fill-opacity="1.000000" fill-rule="nonzero"/>
		<path id="Vector" d="M45.0833 72.9166C45.0833 72.9166 44.4444 77.7777 40.9722 81.25L47.2222 81.25C50.6944 77.7777 51.3333 72.9166 51.3333 72.9166L45.0833 72.9166Z" fill="#EE4248" fill-opacity="1.000000" fill-rule="nonzero"/>
		<path id="Vector" d="M25 70.1389L25 63.1945L18.75 63.1945L18.75 70.1389C18.75 71.6722 19.9944 72.9167 21.5278 72.9167L27.7778 72.9167C26.2444 72.9167 25 71.6722 25 70.1389Z" fill="#EE4248" fill-opacity="1.000000" fill-rule="nonzero"/>
		<path id="Vector" d="M68.0557 31.9444C68.0557 28.8416 69.914 26.1833 72.5695 24.9889C71.614 24.5583 70.5612 24.3055 69.4445 24.3055C65.2251 24.3055 61.8057 27.725 61.8057 31.9444C61.8057 36.1639 65.2251 39.5833 69.4445 39.5833C70.5612 39.5833 71.614 39.3305 72.5695 38.9C69.914 37.7055 68.0557 35.0472 68.0557 31.9444Z" fill="#EE4248" fill-opacity="1.000000" fill-rule="nonzero"/>
		<path id="Vector" d="M33.3334 50.8333C33.3334 47.8361 35.8834 45.4167 39.0389 45.4167L39.1417 45.4167C39.6001 42.3417 41.7973 39.8111 44.7612 38.7417C43.7945 38.4 42.7584 38.1945 41.6667 38.1945C37.1889 38.1945 33.5 41.325 32.8917 45.4167L32.7889 45.4167C29.6306 45.4167 27.0834 47.8361 27.0834 50.8333C27.0834 53.8306 29.6334 56.25 32.7889 56.25L39.0389 56.25C35.8834 56.25 33.3334 53.8306 33.3334 50.8333Z" fill="#EE4248" fill-opacity="1.000000" fill-rule="nonzero"/>
		<path id="Vector" d="M27.7778 29.8611L21.5278 29.8611C20 29.8611 18.75 31.1111 18.75 32.6389L18.75 63.1944L25 63.1944L25 32.6389C25 31.1111 26.25 29.8611 27.7778 29.8611Z" fill="#D5DBE1" fill-opacity="1.000000" fill-rule="nonzero"/>
		<path id="Vector" d="M78.4722 75.0001L21.5277 75.0001C18.8472 75.0001 16.6666 72.8195 16.6666 70.1389L16.6666 32.6389C16.6666 29.9584 18.8472 27.7778 21.5277 27.7778L50 27.7778L50 31.9445L21.5277 31.9445C21.15 31.9445 20.8333 32.2612 20.8333 32.6389L20.8333 70.1389C20.8333 70.5167 21.15 70.8334 21.5277 70.8334L78.4722 70.8334C78.85 70.8334 79.1666 70.5167 79.1666 70.1389L79.1666 47.2223L83.3333 47.2223L83.3333 70.1389C83.3333 72.8195 81.1527 75.0001 78.4722 75.0001Z" fill="#000000" fill-opacity="1.000000" fill-rule="nonzero"/>
		<path id="Vector" d="M18.75 61.1111L81.25 61.1111L81.25 65.2778L18.75 65.2778L18.75 61.1111Z" fill="#000000" fill-opacity="1.000000" fill-rule="nonzero"/>
		<path id="Vector" d="M59.0277 83.3333L40.9721 83.3333C40.1277 83.3333 39.3694 82.825 39.0471 82.0472C38.7277 81.2694 38.9027 80.3722 39.4999 79.7778C42.4055 76.8722 43.0166 72.6805 43.0222 72.6389L47.1499 73.1889C47.1305 73.3528 46.7416 76.15 45.086 79.1667L54.8694 79.1667C53.2277 76.1667 52.8221 73.3667 52.7971 73.2056L56.9221 72.625C56.9305 72.6667 57.5416 76.6778 60.2166 79.5389C60.7583 79.9167 61.111 80.5417 61.111 81.25C61.111 82.4 60.1777 83.3333 59.0277 83.3333Z" fill="#000000" fill-opacity="1.000000" fill-rule="nonzero"/>
		<path id="Vector" d="M69.4444 41.6666C64.0833 41.6666 59.7222 37.3055 59.7222 31.9444C59.7222 26.5833 64.0833 22.2222 69.4444 22.2222C74.8055 22.2222 79.1666 26.5833 79.1666 31.9444C79.1666 37.3055 74.8055 41.6666 69.4444 41.6666ZM69.4444 26.3888C66.3805 26.3888 63.8888 28.8805 63.8888 31.9444C63.8888 35.0083 66.3805 37.4999 69.4444 37.4999C72.5083 37.4999 74.9999 35.0083 74.9999 31.9444C74.9999 28.8805 72.5083 26.3888 69.4444 26.3888Z" fill="#000000" fill-opacity="1.000000" fill-rule="nonzero"/>
		<path id="Vector" d="M67.3611 37.5L71.5277 37.5L71.5277 47.2222L67.3611 47.2222L67.3611 37.5Z" fill="#000000" fill-opacity="1.000000" fill-rule="nonzero"/>
		<path id="Vector" d="M67.3611 16.6666L71.5277 16.6666L71.5277 26.3889L67.3611 26.3889L67.3611 16.6666Z" fill="#000000" fill-opacity="1.000000" fill-rule="nonzero"/>
		<path id="Vector" d="M73.2604 27.2522L82.1294 22.506L84.0947 26.1785L75.2257 30.9247L73.2604 27.2522Z" fill="#000000" fill-opacity="1.000000" fill-rule="nonzero"/>
		<path id="Vector" d="M54.8456 37.6523L63.7146 32.9061L65.6799 36.5787L56.8109 41.3249L54.8456 37.6523Z" fill="#000000" fill-opacity="1.000000" fill-rule="nonzero"/>
		<path id="Vector" d="M54.8517 26.2177L56.817 22.5451L65.686 27.2913L63.7207 30.9639L54.8517 26.2177Z" fill="#000000" fill-opacity="1.000000" fill-rule="nonzero"/>
		<path id="Vector" d="M73.2767 36.6083L75.242 32.9357L84.111 37.6819L82.1457 41.3545L73.2767 36.6083Z" fill="#000000" fill-opacity="1.000000" fill-rule="nonzero"/>
		<path id="Vector" d="M49.2778 58.3333L32.7778 58.3333C28.4889 58.3333 25 54.9694 25 50.8333C25 47.2139 27.6722 44.1861 31.2111 43.4833C32.6139 39.1833 36.8417 36.1111 41.6667 36.1111C44.7389 36.1111 47.6805 37.35 49.7333 39.5111L46.7111 42.3805C45.4417 41.0444 43.6028 40.2777 41.6667 40.2777C38.3 40.2777 35.4139 42.6194 34.95 45.725C34.7944 46.7444 33.9194 47.5 32.8889 47.5C30.7861 47.5 29.1667 48.9944 29.1667 50.8333C29.1667 52.6722 30.7861 54.1667 32.7778 54.1667L49.2778 54.1667C51.975 54.1667 54.1667 52.1361 54.1667 49.6389C54.1667 49.2639 54.1278 48.9611 54.05 48.6778L58.0583 47.5444C58.2444 48.1972 58.3333 48.8833 58.3333 49.6389C58.3333 54.4333 54.2722 58.3333 49.2778 58.3333Z" fill="#000000" fill-opacity="1.000000" fill-rule="nonzero"/>
	</g>
</svg>
