<svg width="400.948853" height="373.000000" viewBox="0 0 400.949 373" fill="none" xmlns="http://www.w3.org/2000/svg" xmlns:xlink="http://www.w3.org/1999/xlink">
	<desc>
			Created with Pixso.
	</desc>
	<defs/>
	<g opacity="0.000000">
		<g opacity="0.000000">
			<path id="Vector" d="M36.8306 9.21973L197.792 9.21973L197.792 189.775L36.8306 189.775L36.8306 9.21973Z" fill="#E0E0E0" fill-opacity="1.000000" fill-rule="evenodd"/>
		</g>
		<g opacity="0.000000">
			<path id="Vector" d="M42.7191 14.3867L192.93 14.3867L192.93 184.617L42.7191 184.617L42.7191 14.3867Z" fill="#FAFAFA" fill-opacity="1.000000" fill-rule="evenodd"/>
		</g>
		<g opacity="0.000000">
			<path id="Vector" d="M42.7191 139.696L72.9364 139.696L76.8218 155.575L89.9375 155.575L101.11 110.429L138.495 110.429L138.495 79.643L165.692 79.643L165.692 131.079L192.93 131.079L192.93 184.626L42.7191 184.626L42.7191 139.696Z" fill="#F5F5F5" fill-opacity="1.000000" fill-rule="nonzero"/>
		</g>
		<g opacity="0.000000">
			<path id="Vector" d="M115.364 14.3867L120.215 14.3867L120.215 183.216L115.364 183.216L115.364 14.3867Z" fill="#E0E0E0" fill-opacity="1.000000" fill-rule="evenodd"/>
		</g>
		<g opacity="0.000000">
			<path id="Vector" d="M42.7191 96.8602L192.93 96.8602L192.93 101.299L42.7191 101.299L42.7191 96.8602Z" fill="#E0E0E0" fill-opacity="1.000000" fill-rule="evenodd"/>
		</g>
		<g opacity="0.000000">
			<path id="Vector" d="M350.671 57.3577L360.334 79.4184L354.324 79.4004L349.513 65.8405L350.671 57.3577Z" fill="#E0E0E0" fill-opacity="1.000000" fill-rule="nonzero"/>
		</g>
		<g opacity="0.000000">
			<path id="Vector" d="M317.685 36.9685L314.363 79.2476L348.647 79.8857L352.502 36.9685L317.685 36.9685Z" fill="#EBEBEB" fill-opacity="1.000000" fill-rule="nonzero"/>
		</g>
		<g opacity="0.000000">
			<path id="Vector" d="M321.107 40.3742L318.349 75.5633L343.836 76.6327L347.399 40.1675L321.107 40.3742Z" fill="#FAFAFA" fill-opacity="1.000000" fill-rule="nonzero"/>
		</g>
		<g opacity="0.000000">
			<path id="Vector" d="M326.704 45.3524L324.63 70.0819L338.692 70.0819L341.178 45.3524L326.704 45.3524Z" fill="#E0E0E0" fill-opacity="1.000000" fill-rule="nonzero"/>
		</g>
		<g opacity="0.000000">
			<path id="Vector" d="M266.762 79.5801L266.762 44.8132L295.279 44.8132L295.279 79.5531L266.762 79.5801Z" fill="#EBEBEB" fill-opacity="1.000000" fill-rule="nonzero"/>
		</g>
		<g opacity="0.000000">
			<path id="Vector" d="M282.978 44.8132C282.978 44.8132 289.853 -0.0628357 287.931 6.10352e-05C286.008 0.0629578 281.166 40.9133 281.166 40.9133C281.166 40.9133 280.965 7.08102 279.153 7.26074C277.341 7.44046 279.153 43.0789 279.153 43.0789C279.153 43.0789 276.053 14.153 274.382 14.8449C272.711 15.5369 275.097 44.8132 275.097 44.8132L282.988 44.8132L282.978 44.8132Z" fill="#E0E0E0" fill-opacity="1.000000" fill-rule="nonzero"/>
		</g>
		<g opacity="0.000000">
			<path id="Vector" d="M277.794 44.8132C277.794 44.8132 280.18 22.4471 280.965 23.9747C281.75 25.5023 280.965 37.2919 280.965 37.2919C280.965 37.2919 287.619 8.40195 289.3 9.36343C290.981 10.325 282.586 40.7516 282.586 40.7516C282.586 40.7516 289.028 23.3996 290.447 25.2327C291.866 27.0659 285.102 43.3395 285.102 43.3395C285.102 43.3395 292.017 31.8285 292.49 33.374C292.963 34.9196 289.189 44.8222 289.189 44.8222L277.794 44.8132Z" fill="#EBEBEB" fill-opacity="1.000000" fill-rule="nonzero"/>
		</g>
		<g opacity="0.000000">
			<path id="Vector" d="M273.728 44.9481C273.728 44.9481 258.488 18.2327 260.371 19.0594C262.253 19.8861 272.007 37.1572 272.007 37.1572C272.007 37.1572 265.554 20.4971 266.974 19.9849C268.393 19.4727 275.459 38.7028 275.459 38.7028L277.049 44.993L273.728 44.9481Z" fill="#EBEBEB" fill-opacity="1.000000" fill-rule="nonzero"/>
		</g>
		<g opacity="0.000000">
			<path id="Vector" d="M279.969 44.8762L280.683 79.634L267.125 79.634L266.863 44.7593L279.969 44.8762Z" fill="#E0E0E0" fill-opacity="1.000000" fill-rule="nonzero"/>
		</g>
		<g opacity="0.000000">
			<path id="Vector" d="M266.793 47.8865L279.928 48.0842L295.279 47.8865L295.762 44.5616L266.42 44.5616L266.793 47.8865Z" fill="#F5F5F5" fill-opacity="1.000000" fill-rule="nonzero"/>
		</g>
		<g opacity="0.000000">
			<path id="Vector" d="M242.232 79.014L384.824 79.014L384.824 84.6033L242.232 84.6033L242.232 79.014Z" fill="#E0E0E0" fill-opacity="1.000000" fill-rule="evenodd"/>
		</g>
	</g>
	<g opacity="0.000000">
		<g opacity="0.000000">
			<path id="Vector" d="M377.657 66.8918C404.079 111.597 395.02 169.09 363.283 210.937C331.545 252.785 278.731 279.896 223.208 289.763C183.569 296.799 140.93 295.37 104.714 279.357C68.4974 263.344 40.0013 231.129 37.8472 195.104C37.0319 181.499 40.263 167.05 50.4294 156.887C66.6755 140.658 94.4066 140.092 118.766 140.712C143.125 141.332 170.836 140.874 187.162 124.717C199.704 112.298 201.546 94.2901 208.16 78.6455C219.393 52.0919 246.5 31.3162 277.664 25.4753C292.506 22.754 307.86 23.2284 322.456 26.8592C334.168 29.786 345.087 34.8178 354.542 41.6461C363.998 48.4744 371.792 56.9552 377.445 66.5683L377.657 66.8918Z" fill="#EBEBEB" fill-opacity="1.000000" fill-rule="nonzero"/>
		</g>
	</g>
	<path id="Vector" d="M268.957 280.426C267.749 279.231 270.597 272.249 284.116 271.755C297.634 271.261 303.049 275.655 303.07 280.426C303.08 282.538 268.957 280.426 268.957 280.426Z" fill="#455A64" fill-opacity="1.000000" fill-rule="nonzero"/>
	<path id="Vector" d="M262.283 97.7588L247.265 180.673L384.421 180.673L400.949 96.8692L262.283 97.7588Z" fill="#F5F5F5" fill-opacity="1.000000" fill-rule="nonzero"/>
	<path id="Vector" d="M260.914 105.298C260.975 105.011 399.379 104.831 399.379 104.831L400.949 96.8692L262.283 97.7678L260.914 105.316L260.914 105.298Z" fill="#E0E0E0" fill-opacity="1.000000" fill-rule="nonzero"/>
	<path id="Vector" d="M268.081 101.488C268.083 101.714 268.01 101.936 267.871 102.124C267.731 102.313 267.532 102.461 267.299 102.549C267.065 102.636 266.808 102.66 266.56 102.617C266.311 102.574 266.082 102.466 265.902 102.307C265.723 102.148 265.6 101.945 265.55 101.723C265.5 101.501 265.524 101.271 265.621 101.062C265.717 100.853 265.881 100.675 266.091 100.549C266.302 100.423 266.549 100.356 266.803 100.356C266.97 100.355 267.136 100.383 267.291 100.439C267.446 100.496 267.587 100.579 267.706 100.684C267.825 100.789 267.919 100.915 267.984 101.053C268.048 101.191 268.081 101.339 268.081 101.488Z" fill="#263238" fill-opacity="1.000000" fill-rule="nonzero"/>
	<path id="Vector" d="M274.322 101.488C274.322 101.712 274.247 101.931 274.108 102.117C273.969 102.303 273.771 102.448 273.539 102.534C273.307 102.62 273.052 102.642 272.806 102.598C272.56 102.555 272.334 102.447 272.157 102.289C271.979 102.13 271.859 101.929 271.81 101.709C271.761 101.489 271.786 101.262 271.882 101.055C271.978 100.848 272.14 100.671 272.349 100.547C272.557 100.422 272.803 100.356 273.053 100.356C273.39 100.356 273.712 100.475 273.95 100.687C274.188 100.9 274.322 101.188 274.322 101.488Z" fill="#263238" fill-opacity="1.000000" fill-rule="nonzero"/>
	<path id="Vector" d="M280.573 101.488C280.575 101.714 280.501 101.936 280.362 102.124C280.223 102.313 280.024 102.461 279.791 102.549C279.557 102.636 279.3 102.66 279.051 102.617C278.802 102.574 278.574 102.466 278.394 102.307C278.214 102.148 278.091 101.945 278.041 101.723C277.991 101.501 278.016 101.271 278.112 101.062C278.209 100.853 278.373 100.675 278.583 100.549C278.793 100.423 279.041 100.356 279.294 100.356C279.462 100.355 279.628 100.383 279.783 100.439C279.938 100.496 280.079 100.579 280.198 100.684C280.316 100.789 280.411 100.915 280.475 101.053C280.539 101.191 280.573 101.339 280.573 101.488Z" fill="#263238" fill-opacity="1.000000" fill-rule="nonzero"/>
	<path id="Vector" d="M296.064 142.545L278.902 160.265C275.661 158.303 272.998 155.671 271.139 152.594C269.28 149.517 268.279 146.086 268.222 142.59C268.222 130.27 280.794 120.125 296.064 120.125C311.333 120.125 323.906 130.261 323.906 142.59L296.064 142.545Z" fill="#EE4248" fill-opacity="1.000000" fill-rule="nonzero"/>
	<path id="Vector" d="M298.268 145.358C298.185 145.483 298.087 145.601 297.976 145.708L297.08 146.661L293.678 150.255C290.719 153.346 286.511 157.713 281.469 162.97L281.469 162.683C285.271 165.019 289.663 166.477 294.252 166.924C299.432 167.457 304.678 166.75 309.451 164.875C314.007 163.109 317.941 160.274 320.836 156.671C322.14 154.991 323.186 153.163 323.946 151.234C324.609 149.434 325.011 147.564 325.144 145.672L325.365 145.879L305.737 145.582L300.221 145.474L298.761 145.43C298.591 145.444 298.419 145.444 298.248 145.43C298.409 145.416 298.571 145.416 298.731 145.43L300.171 145.43L305.656 145.43L325.365 145.546L325.607 145.546L325.607 145.762C325.492 147.696 325.093 149.609 324.419 151.45C323.654 153.42 322.595 155.288 321.268 157.004C318.32 160.702 314.292 163.608 309.622 165.405C304.761 167.304 299.422 168.017 294.151 167.472C289.485 166.999 285.023 165.499 281.167 163.105L280.965 162.979L281.126 162.808L293.547 150.165L297.02 146.661L297.946 145.762C298.04 145.619 298.148 145.484 298.268 145.358Z" fill="#263238" fill-opacity="1.000000" fill-rule="nonzero"/>
	<path id="Vector" d="M309.461 129.201C309.461 129.97 308.763 130.594 307.901 130.594C307.039 130.594 306.341 129.97 306.341 129.201C306.341 128.432 307.039 127.808 307.901 127.808C308.763 127.808 309.461 128.432 309.461 129.201Z" fill="#263238" fill-opacity="1.000000" fill-rule="evenodd"/>
	<path id="Vector" d="M340.454 119.011C339.968 119.078 339.476 119.108 338.984 119.101L334.958 119.172C331.586 119.172 326.905 119.244 321.782 119.244L319.326 119.244L319.507 119.181C316.276 122.057 313.397 124.573 311.313 126.37L308.847 128.473C308.566 128.746 308.248 128.987 307.901 129.192C308.146 128.893 308.418 128.613 308.716 128.356C309.33 127.772 310.126 127.035 311.072 126.155C313.085 124.294 315.924 121.724 319.124 118.831L319.195 118.768L321.842 118.768C326.986 118.768 331.646 118.768 335.018 118.831L339.045 118.912C339.517 118.905 339.989 118.938 340.454 119.011Z" fill="#263238" fill-opacity="1.000000" fill-rule="nonzero"/>
	<path id="Vector" d="M375.805 136.515C375.811 136.355 375.835 136.196 375.875 136.039C375.935 135.716 376.016 135.275 376.127 134.709L377.133 129.686L380.767 111.66L380.978 111.885L341.994 111.93L342.245 111.741L342.245 111.831L342.245 111.939L342.245 112.145L342.155 112.559L341.984 113.394L341.641 115.048C341.41 116.144 341.188 117.231 340.957 118.31C340.514 120.466 340.075 122.587 339.638 124.672C338.763 128.823 337.927 132.759 337.152 136.542L336.911 136.291L364.994 136.39L373.047 136.453L375.191 136.453L375.744 136.453L375.945 136.453L375.774 136.453L375.241 136.453L373.137 136.453L365.165 136.506L336.981 136.605L336.699 136.605L336.749 136.354C337.525 132.607 338.34 128.626 339.206 124.465C339.628 122.389 340.071 120.269 340.514 118.112C340.746 117.025 340.967 115.937 341.199 114.841C341.309 114.293 341.42 113.745 341.541 113.188L341.712 112.361L341.792 111.948L341.843 111.732L341.843 111.633L341.843 111.552L342.104 111.355L381.089 111.4L381.23 111.4L381.18 111.624C379.569 119.145 378.24 125.355 377.314 129.713C376.841 131.843 376.479 133.514 376.217 134.691L375.925 135.976C375.845 136.381 375.805 136.524 375.805 136.515Z" fill="#263238" fill-opacity="1.000000" fill-rule="nonzero"/>
	<path id="Vector" d="M311.907 157.219C311.907 157.988 311.209 158.612 310.347 158.612C309.485 158.612 308.787 157.988 308.787 157.219C308.787 156.45 309.485 155.826 310.347 155.826C311.209 155.826 311.907 156.45 311.907 157.219Z" fill="#263238" fill-opacity="1.000000" fill-rule="evenodd"/>
	<path id="Vector" d="M338.672 157.219C338.672 157.354 332.331 157.453 324.51 157.453C316.688 157.453 310.347 157.354 310.347 157.219C310.347 157.084 316.688 156.986 324.51 156.986C332.331 156.986 338.672 157.093 338.672 157.219Z" fill="#263238" fill-opacity="1.000000" fill-rule="nonzero"/>
	<path id="Vector" d="M375.805 168.074C375.817 167.959 375.841 167.845 375.875 167.733C375.935 167.49 376.016 167.167 376.127 166.762C376.358 165.864 376.69 164.669 377.133 163.105C378.009 159.924 379.257 155.386 380.797 149.806L380.988 150.021L340.786 150.075L341.038 149.905L341.038 149.958L341.038 150.03L341.038 150.183L340.947 150.489L340.776 151.082L340.444 152.286C340.212 153.077 339.991 153.867 339.769 154.658L338.34 159.367C337.474 162.413 336.639 165.36 335.833 168.173L335.602 167.904L364.44 168.002L372.775 168.056L375.009 168.056L375.593 168.056L375.805 168.056L375.623 168.056L375.06 168.056L372.875 168.056L364.581 168.11L335.602 168.209L335.28 168.209L335.36 167.93C336.156 165.118 336.981 162.161 337.837 159.115C338.266 157.588 338.706 156.039 339.155 154.469L339.82 152.097L340.162 150.902L340.333 150.3L340.413 149.994L340.413 149.851L340.413 149.77L340.413 149.716L340.665 149.536L380.868 149.599L381.23 149.599L381.17 149.815C379.539 155.422 378.22 159.978 377.294 163.168C376.831 164.704 376.469 165.918 376.217 166.762C376.096 167.149 376.006 167.454 375.935 167.661C375.865 167.868 375.805 168.083 375.805 168.074Z" fill="#263238" fill-opacity="1.000000" fill-rule="nonzero"/>
	<path id="Vector" d="M372.634 119.325C372.634 119.46 366.665 119.559 359.297 119.559C351.929 119.559 345.96 119.46 345.96 119.325C345.96 119.19 351.929 119.092 359.297 119.092C366.665 119.092 372.634 119.199 372.634 119.325Z" fill="#263238" fill-opacity="1.000000" fill-rule="nonzero"/>
	<path id="Vector" d="M372.322 123.225C372.322 123.36 366.282 123.459 358.914 123.459C351.546 123.459 345.497 123.36 345.497 123.225C345.497 123.09 351.536 122.992 358.914 122.992C366.292 122.992 372.322 123.099 372.322 123.225Z" fill="#263238" fill-opacity="1.000000" fill-rule="nonzero"/>
	<path id="Vector" d="M371.547 127.017C371.547 127.143 365.749 127.251 358.602 127.251C351.456 127.251 345.648 127.143 345.648 127.017C345.648 126.891 351.445 126.784 358.602 126.784C365.759 126.784 371.547 126.855 371.547 127.017Z" fill="#263238" fill-opacity="1.000000" fill-rule="nonzero"/>
	<path id="Vector" d="M372.01 156.788C372.01 156.914 366.323 157.021 359.297 157.021C352.271 157.021 346.584 156.914 346.584 156.788C346.584 156.662 352.281 156.554 359.297 156.554C366.313 156.554 372.01 156.671 372.01 156.788Z" fill="#263238" fill-opacity="1.000000" fill-rule="nonzero"/>
	<path id="Vector" d="M370.45 161.101C370.45 161.236 365.598 161.335 359.609 161.335C353.62 161.335 348.768 161.236 348.768 161.101C348.768 160.966 353.62 160.867 359.609 160.867C365.598 160.867 370.45 160.975 370.45 161.101Z" fill="#263238" fill-opacity="1.000000" fill-rule="nonzero"/>
	<path id="Vector" d="M208.441 251.384C207.958 253.909 194.531 280.435 203.197 280.435L246.762 280.435C246.762 280.435 242.262 276.661 255.881 251.384L208.441 251.384Z" fill="#455A64" fill-opacity="1.000000" fill-rule="nonzero"/>
	<path id="Vector" d="M180.257 162.844L162.451 255.742L312.642 255.742L331.062 159.583L180.257 162.844Z" fill="#455A64" fill-opacity="1.000000" fill-rule="nonzero"/>
	<path id="Vector" d="M185.361 167.373L170.353 250.296L307.498 250.296L324.026 166.493L185.361 167.373Z" fill="#FAFAFA" fill-opacity="1.000000" fill-rule="nonzero"/>
	<path id="Vector" d="M331.062 159.583L333.901 161.29L314.776 258.267L166.417 258.267L162.451 255.742L312.642 255.742L331.062 159.583Z" fill="#263238" fill-opacity="1.000000" fill-rule="nonzero"/>
	<path id="Vector" d="M184.002 174.922C184.052 174.625 322.456 174.454 322.456 174.454L324.026 166.493L185.361 167.391L184.002 174.94L184.002 174.922Z" fill="#EBEBEB" fill-opacity="1.000000" fill-rule="nonzero"/>
	<path id="Vector" d="M285.887 242.937L285.887 242.703L286.008 242.011C286.136 241.352 286.307 240.454 286.521 239.315C286.995 236.898 287.659 233.429 288.484 229.125C290.195 220.409 292.581 208.278 295.289 194.511L295.289 194.313L306.623 194.313L306.572 194.592C302.375 214.891 298.701 232.729 296.577 242.982L296.577 243.089L296.466 243.089L288.575 243.018L286.562 243.018L286.068 243.018L286.612 243.018L288.696 243.018L296.497 242.946L296.356 243.044L306.099 194.619L306.361 194.889L295.57 194.889L295.822 194.7C293.034 208.385 290.588 220.436 288.776 229.107C287.89 233.42 287.166 236.898 286.662 239.324C286.411 240.501 286.219 241.427 286.079 242.092C286.008 242.389 285.958 242.631 285.917 242.811C285.909 242.853 285.899 242.895 285.887 242.937Z" fill="#263238" fill-opacity="1.000000" fill-rule="nonzero"/>
	<path id="Vector" d="M268.494 242.937C268.507 242.718 268.544 242.502 268.604 242.29C268.695 241.813 268.826 241.175 268.987 240.367C269.349 238.632 269.853 236.179 270.487 233.178C271.805 226.951 273.647 218.288 275.751 208.385L275.751 208.197L287.085 208.197L287.025 208.475C283.844 222.556 280.985 235.074 279.214 243.009L279.214 243.125L279.083 243.125L271.201 243.044L269.188 243.044C268.964 243.058 268.738 243.058 268.514 243.044L269.259 243.044L271.352 243.044L279.123 242.964L278.962 243.08C280.714 235.137 283.472 222.61 286.572 208.511L286.823 208.79L275.973 208.79L276.224 208.61C274.04 218.423 272.127 227.013 270.748 233.187C270.054 236.251 269.5 238.713 269.098 240.448L268.645 242.415C268.645 242.622 268.544 242.793 268.514 242.928L268.494 242.937Z" fill="#263238" fill-opacity="1.000000" fill-rule="nonzero"/>
	<path id="Vector" d="M251.03 242.937C251.021 242.841 251.021 242.745 251.03 242.649L251.191 241.75C251.342 240.96 251.553 239.827 251.835 238.372C252.419 235.397 253.254 231.111 254.301 225.791C256.435 215.008 259.404 200.082 262.766 183.162L262.766 182.973L274.1 182.973L274.05 183.243C268.796 208.934 264.155 231.318 261.699 242.937L261.699 243.035L261.589 243.035L253.667 242.964L251.654 242.964L250.989 242.964L251.704 242.964L253.768 242.964L261.599 242.901L261.478 242.991C263.773 231.309 268.302 208.943 273.557 183.261L273.819 183.539L263.058 183.539L263.31 183.341C259.877 200.172 256.838 215.053 254.643 225.755C253.536 231.093 252.63 235.397 252.026 238.381L251.301 241.804C251.221 242.182 251.161 242.478 251.11 242.703L251.03 242.937Z" fill="#263238" fill-opacity="1.000000" fill-rule="nonzero"/>
	<path id="Vector" d="M233.596 242.937C233.603 242.786 233.624 242.636 233.656 242.487C233.727 242.137 233.807 241.697 233.908 241.139C234.139 239.899 234.471 238.174 234.914 236.026C235.79 231.578 237.008 225.405 238.407 218.27L238.407 218.081L249.731 218.081L249.671 218.36C247.587 228.065 245.715 236.799 244.386 242.973L244.386 243.107L244.245 243.107L236.394 243.017L234.27 242.937C234.039 242.949 233.807 242.949 233.576 242.937L234.341 242.937L236.464 242.937L244.195 242.847L244.014 242.973C245.302 236.799 247.124 228.047 249.137 218.333L249.399 218.611L238.619 218.611L238.86 218.432C237.37 225.486 236.092 231.587 235.156 235.981C234.693 238.138 234.31 239.881 234.039 241.13C233.908 241.697 233.807 242.164 233.727 242.514C233.692 242.657 233.649 242.798 233.596 242.937Z" fill="#263238" fill-opacity="1.000000" fill-rule="nonzero"/>
	<path id="Vector" d="M216.152 242.937C216.152 242.937 216.152 242.874 216.152 242.748C216.152 242.622 216.152 242.397 216.242 242.164C216.343 241.616 216.474 240.861 216.645 239.89C217.017 237.869 217.541 234.975 218.195 231.381C219.564 224.066 221.456 213.894 223.621 202.311L223.621 202.122L234.955 202.122L234.894 202.401C231.573 219.142 228.643 233.942 226.842 242.964L226.842 243.08L226.721 243.08L218.849 243L216.786 243C216.561 243.013 216.336 243.013 216.112 243L216.303 243L216.846 243L218.94 243L226.721 242.928L226.57 243.035L234.401 202.437L234.663 202.715L223.923 202.715L224.174 202.527C221.93 214.029 219.957 224.093 218.537 231.381C217.813 234.975 217.239 237.895 216.826 239.935C216.625 240.915 216.474 241.733 216.353 242.245L216.222 242.856L216.152 242.937Z" fill="#263238" fill-opacity="1.000000" fill-rule="nonzero"/>
	<path id="Vector" d="M198.738 242.937C198.725 242.85 198.725 242.763 198.738 242.676C198.738 242.478 198.819 242.218 198.879 241.885C199.02 241.157 199.211 240.088 199.463 238.794C199.976 236.098 200.731 232.153 201.657 227.283C203.57 217.443 206.237 203.749 209.257 188.248L209.257 188.059L220.591 188.059L220.54 188.338C215.85 211.629 211.703 231.992 209.418 242.964L209.418 243.062L209.307 243.062L201.405 242.991L199.392 242.991L198.909 242.991L199.443 242.991L201.506 242.991L209.327 242.919L209.196 243.018C211.33 232.019 215.377 211.638 220.067 188.356L220.319 188.625L209.539 188.625L209.79 188.437C206.7 203.857 203.962 217.47 201.999 227.256C200.993 232.144 200.198 236.071 199.634 238.803C199.362 240.151 199.141 241.193 198.99 241.939C198.909 242.281 198.859 242.55 198.809 242.757C198.758 242.964 198.738 242.937 198.738 242.937Z" fill="#263238" fill-opacity="1.000000" fill-rule="nonzero"/>
	<path id="Vector" d="M191.159 171.111C191.161 171.338 191.087 171.559 190.948 171.748C190.809 171.937 190.61 172.084 190.376 172.172C190.143 172.26 189.886 172.284 189.637 172.241C189.388 172.198 189.16 172.09 188.98 171.931C188.8 171.771 188.677 171.568 188.627 171.346C188.577 171.125 188.602 170.895 188.698 170.686C188.795 170.477 188.959 170.298 189.169 170.172C189.379 170.046 189.627 169.979 189.88 169.979C190.218 169.979 190.541 170.098 190.781 170.31C191.02 170.522 191.156 170.81 191.159 171.111Z" fill="#263238" fill-opacity="1.000000" fill-rule="nonzero"/>
	<path id="Vector" d="M197.399 171.112C197.399 171.737 196.832 172.244 196.131 172.244C195.431 172.244 194.863 171.737 194.863 171.112C194.863 170.486 195.431 169.979 196.131 169.979C196.832 169.979 197.399 170.486 197.399 171.112Z" fill="#263238" fill-opacity="1.000000" fill-rule="evenodd"/>
	<path id="Vector" d="M203.65 171.112C203.652 171.338 203.579 171.56 203.439 171.749C203.299 171.938 203.1 172.086 202.866 172.173C202.632 172.261 202.374 172.284 202.125 172.24C201.876 172.196 201.647 172.088 201.468 171.927C201.289 171.767 201.167 171.563 201.118 171.341C201.069 171.119 201.095 170.889 201.193 170.68C201.291 170.471 201.456 170.293 201.668 170.168C201.88 170.043 202.128 169.978 202.382 169.979C202.717 169.982 203.039 170.102 203.276 170.314C203.513 170.525 203.648 170.812 203.65 171.112Z" fill="#263238" fill-opacity="1.000000" fill-rule="nonzero"/>
	<path id="Vector" d="M181.304 242.937C181.304 242.937 181.304 242.703 181.415 242.245C181.526 241.786 181.626 241.068 181.787 240.205C182.14 238.408 182.633 235.775 183.247 232.549C184.535 225.953 186.317 216.787 188.36 206.328L188.36 206.139L199.694 206.139L199.634 206.418C196.524 221.388 193.756 234.67 192.034 242.973L192.034 243.089L191.913 243.089L184.032 243.009L182.019 243.009C181.791 243.021 181.562 243.021 181.334 243.009L181.536 243.009L182.079 243.009L184.173 243.009L191.954 242.928L191.793 243.044L199.191 206.462L199.443 206.732L188.612 206.732L188.864 206.543C186.74 216.922 184.837 226.016 183.549 232.549C182.864 235.793 182.321 238.408 181.928 240.241C181.747 241.139 181.596 241.822 181.485 242.326L181.365 242.874C181.346 242.896 181.325 242.917 181.304 242.937Z" fill="#263238" fill-opacity="1.000000" fill-rule="nonzero"/>
	<path id="Vector" d="M298.963 206.373L241.507 206.373L244.789 189.155L302.647 189.155L298.963 206.373Z" fill="#EE4248" fill-opacity="1.000000" fill-rule="nonzero"/>
	<path id="Vector" d="M241.507 206.373L240.39 212.384C240.39 212.384 247.939 206.139 247.819 206.139L241.558 206.139L241.507 206.373Z" fill="#EE4248" fill-opacity="1.000000" fill-rule="nonzero"/>
	<path id="Vector" d="M293.98 195.14C293.98 195.266 284.408 195.374 272.611 195.374C260.814 195.374 251.231 195.266 251.231 195.14C251.231 195.014 260.803 194.906 272.611 194.906C284.418 194.906 293.98 195.014 293.98 195.14Z" fill="#FAFAFA" fill-opacity="1.000000" fill-rule="nonzero"/>
	<path id="Vector" d="M293.416 199.301C293.416 199.426 283.844 199.534 272.047 199.534C260.25 199.534 250.667 199.426 250.667 199.301C250.667 199.175 260.24 199.067 272.047 199.067C283.854 199.067 293.416 199.166 293.416 199.301Z" fill="#FAFAFA" fill-opacity="1.000000" fill-rule="nonzero"/>
	<path id="Vector" d="M223.701 286.384L387.39 286.384L387.39 371.652L223.701 371.652L223.701 286.384Z" fill="#263238" fill-opacity="1.000000" fill-rule="evenodd"/>
	<path id="Vector" d="M223.701 286.384L298.268 286.384L298.268 371.652L223.701 371.652L223.701 286.384Z" fill="#455A64" fill-opacity="1.000000" fill-rule="evenodd"/>
	<path id="Vector" d="M290.638 315.346C290.638 315.346 290.638 315.193 290.638 314.914C290.638 314.636 290.638 314.205 290.638 313.674C290.638 312.569 290.638 310.979 290.588 308.939C290.588 304.841 290.538 298.937 290.487 291.659L290.678 291.829L230.697 291.892C230.465 292.108 231.009 291.614 230.958 291.668L230.958 297.832C230.958 299.872 230.958 301.885 230.958 303.862C230.958 307.825 230.958 311.671 230.958 315.346L230.717 315.13L273.708 315.229L286.179 315.292L289.521 315.292L290.397 315.292L290.699 315.292C290.608 315.301 290.517 315.301 290.427 315.292L289.581 315.292L286.29 315.292L273.879 315.355L230.717 315.463L230.465 315.463L230.465 315.238C230.465 311.563 230.465 307.717 230.465 303.754L230.465 291.668C230.405 291.668 230.958 291.218 230.727 291.425L290.638 291.461L290.829 291.461L290.829 291.623C290.829 298.946 290.749 304.877 290.729 309.011C290.729 311.033 290.729 312.605 290.678 313.701C290.678 314.214 290.678 314.6 290.678 314.914C290.677 315.059 290.663 315.203 290.638 315.346Z" fill="#263238" fill-opacity="1.000000" fill-rule="nonzero"/>
	<path id="Vector" d="M263.229 303.502C263.229 303.502 263.169 303.305 263.048 302.972C262.88 302.512 262.552 302.113 262.112 301.831C261.795 301.626 261.425 301.494 261.037 301.449C260.648 301.403 260.253 301.445 259.887 301.57C259.445 301.717 259.064 301.982 258.795 302.328C258.526 302.674 258.381 303.085 258.381 303.507C258.381 303.928 258.526 304.339 258.795 304.685C259.064 305.032 259.445 305.296 259.887 305.443C260.254 305.564 260.648 305.603 261.036 305.557C261.423 305.512 261.792 305.383 262.112 305.183C262.552 304.901 262.88 304.501 263.048 304.041C263.169 303.709 263.179 303.502 263.229 303.502C263.28 303.502 263.31 303.709 263.229 304.086C263.113 304.621 262.788 305.101 262.313 305.443C261.954 305.704 261.525 305.878 261.069 305.949C260.612 306.02 260.143 305.985 259.706 305.848C259.163 305.678 258.692 305.361 258.358 304.942C258.025 304.522 257.846 304.021 257.846 303.507C257.846 302.993 258.025 302.491 258.358 302.072C258.692 301.652 259.163 301.336 259.706 301.166C260.143 301.03 260.611 300.995 261.067 301.064C261.523 301.133 261.952 301.304 262.313 301.561C262.79 301.906 263.114 302.39 263.229 302.927C263.31 303.305 263.259 303.511 263.229 303.502Z" fill="#263238" fill-opacity="1.000000" fill-rule="nonzero"/>
	<path id="Vector" d="M290.638 341.423C290.638 341.423 290.638 341.271 290.638 340.992C290.638 340.713 290.638 340.273 290.638 339.743C290.638 338.638 290.638 337.047 290.588 335.016C290.588 330.91 290.538 325.015 290.487 317.736L290.679 317.907L230.697 317.97L230.959 317.736L230.959 323.892C230.959 325.931 230.959 327.935 230.959 329.921C230.959 333.884 230.959 337.721 230.959 341.405L230.717 341.181L273.708 341.289L286.179 341.351L289.521 341.351L290.397 341.351C290.497 341.344 290.598 341.344 290.699 341.351L290.427 341.351L289.581 341.351L286.29 341.351L273.879 341.414L230.717 341.522L230.465 341.522L230.465 341.297C230.465 337.613 230.465 333.776 230.465 329.813L230.465 317.754L230.727 317.521L290.709 317.583L290.9 317.583L290.9 317.754C290.9 325.078 290.82 331.009 290.799 335.133C290.799 337.155 290.799 338.727 290.749 339.833C290.749 340.345 290.749 340.731 290.749 341.037C290.721 341.168 290.684 341.297 290.638 341.423Z" fill="#263238" fill-opacity="1.000000" fill-rule="nonzero"/>
	<path id="Vector" d="M263.229 329.58C263.229 329.58 263.169 329.373 263.048 329.041C262.88 328.581 262.552 328.181 262.112 327.899C261.792 327.698 261.423 327.57 261.036 327.524C260.648 327.479 260.254 327.518 259.887 327.639C259.445 327.786 259.064 328.05 258.795 328.396C258.526 328.743 258.381 329.154 258.381 329.575C258.381 329.997 258.526 330.408 258.795 330.754C259.064 331.1 259.445 331.364 259.887 331.512C260.253 331.636 260.647 331.678 261.035 331.634C261.423 331.59 261.793 331.462 262.112 331.26C262.555 330.977 262.883 330.573 263.048 330.11C263.169 329.777 263.179 329.58 263.229 329.58C263.28 329.58 263.31 329.786 263.229 330.155C263.116 330.693 262.791 331.177 262.313 331.521C261.953 331.78 261.524 331.953 261.068 332.022C260.611 332.091 260.142 332.055 259.706 331.916C259.163 331.746 258.692 331.43 258.358 331.01C258.025 330.591 257.846 330.089 257.846 329.575C257.846 329.061 258.025 328.56 258.358 328.14C258.692 327.721 259.163 327.404 259.706 327.234C260.143 327.097 260.612 327.062 261.069 327.133C261.525 327.204 261.954 327.378 262.313 327.639C262.791 327.982 263.116 328.466 263.229 329.005C263.31 329.373 263.259 329.58 263.229 329.58Z" fill="#263238" fill-opacity="1.000000" fill-rule="nonzero"/>
	<path id="Vector" d="M290.638 367.492C290.638 367.492 290.638 367.339 290.638 367.06C290.638 366.782 290.638 366.35 290.638 365.82C290.638 364.715 290.638 363.124 290.588 361.085C290.588 356.987 290.538 351.083 290.487 343.804L290.678 343.975L230.697 344.038C230.465 344.254 231.009 343.759 230.958 343.813L230.958 349.978C230.958 352.018 230.958 354.03 230.958 356.007C230.958 359.97 230.958 363.816 230.958 367.492L230.717 367.276L273.708 367.375L286.179 367.438L289.521 367.438L290.397 367.438L290.699 367.438C290.608 367.446 290.517 367.446 290.427 367.438L289.581 367.438L286.29 367.438L273.879 367.492L230.717 367.599L230.465 367.599L230.465 367.375C230.465 363.699 230.465 359.853 230.465 355.891L230.465 343.813C230.405 343.858 230.958 343.364 230.727 343.571L290.709 343.643L290.9 343.643L290.9 343.804C290.9 351.128 290.819 357.068 290.799 361.192C290.799 363.214 290.799 364.787 290.749 365.883C290.749 366.404 290.749 366.782 290.749 367.096C290.722 367.23 290.685 367.362 290.638 367.492Z" fill="#263238" fill-opacity="1.000000" fill-rule="nonzero"/>
	<path id="Vector" d="M263.229 355.648C263.229 355.648 263.169 355.45 263.048 355.118C262.88 354.658 262.552 354.259 262.112 353.977C261.794 353.774 261.424 353.644 261.036 353.598C260.648 353.553 260.254 353.593 259.887 353.716C259.445 353.863 259.064 354.128 258.795 354.474C258.526 354.82 258.381 355.231 258.381 355.653C258.381 356.074 258.526 356.485 258.795 356.831C259.064 357.177 259.445 357.442 259.887 357.589C260.254 357.712 260.648 357.752 261.036 357.707C261.424 357.661 261.794 357.531 262.112 357.328C262.552 357.047 262.88 356.647 263.048 356.187C263.169 355.855 263.179 355.648 263.229 355.648C263.28 355.648 263.31 355.855 263.229 356.232C263.112 356.769 262.788 357.252 262.313 357.598C261.952 357.855 261.523 358.026 261.067 358.095C260.611 358.164 260.143 358.129 259.706 357.993C259.163 357.824 258.692 357.507 258.358 357.088C258.025 356.668 257.846 356.167 257.846 355.653C257.846 355.138 258.025 354.637 258.358 354.218C258.692 353.798 259.163 353.482 259.706 353.312C260.143 353.176 260.611 353.141 261.067 353.21C261.523 353.279 261.952 353.45 262.313 353.707C262.79 354.052 263.114 354.535 263.229 355.073C263.31 355.45 263.259 355.657 263.229 355.648Z" fill="#263238" fill-opacity="1.000000" fill-rule="nonzero"/>
	<path id="Vector" d="M5.28452 286.384L142.974 286.384L142.974 371.652L5.28452 371.652L5.28452 286.384Z" fill="#263238" fill-opacity="1.000000" fill-rule="evenodd"/>
	<path id="Vector" d="M0 280.435L393.319 280.435L393.319 288.541L0 288.541L0 280.435Z" fill="#263238" fill-opacity="1.000000" fill-rule="evenodd"/>
	<path id="Vector" d="M5.28455 288.541L17.4842 288.541L17.4842 371.652L5.28455 371.652L5.28455 288.541Z" fill="#455A64" fill-opacity="1.000000" fill-rule="evenodd"/>
	<path id="Vector" d="M158.203 152.178C158.122 151.837 158.065 151.492 158.032 151.145C157.886 150.221 157.544 149.331 157.026 148.521C156.69 147.978 156.177 147.54 155.556 147.263C155.206 147.128 154.819 147.09 154.445 147.152C154.07 147.215 153.725 147.375 153.452 147.613C152.286 148.905 151.651 150.514 151.651 152.174C151.651 153.833 152.286 155.442 153.452 156.734C153.723 156.973 154.068 157.135 154.443 157.199C154.818 157.263 155.205 157.227 155.556 157.093C156.176 156.81 156.687 156.369 157.026 155.826C157.544 155.016 157.886 154.126 158.032 153.202C158.064 152.858 158.122 152.516 158.203 152.178C158.269 152.526 158.269 152.881 158.203 153.229C158.136 154.197 157.837 155.141 157.328 155.997C156.964 156.615 156.399 157.119 155.707 157.444C155.297 157.619 154.837 157.679 154.388 157.615C153.92 157.533 153.483 157.344 153.12 157.066C151.821 155.702 151.107 153.969 151.107 152.178C151.107 150.387 151.821 148.654 153.12 147.29C153.48 147.006 153.918 146.814 154.388 146.733C154.837 146.673 155.296 146.732 155.707 146.903C156.399 147.228 156.964 147.733 157.328 148.35C157.839 149.209 158.137 150.156 158.203 151.127C158.268 151.475 158.268 151.83 158.203 152.178Z" fill="#263238" fill-opacity="1.000000" fill-rule="nonzero"/>
	<path id="Vector" d="M114.75 134.61L111.73 188.454L137.639 190.629L139.068 177.554C139.068 177.554 148.128 179.567 150.946 172.046C152.707 167.239 154.278 129.596 154.278 129.596L114.75 134.61Z" fill="#FFBE9D" fill-opacity="1.000000" fill-rule="nonzero"/>
	<path id="Vector" d="M159.784 135.15C157.579 139.831 149.265 143.848 149.265 143.848L147.906 155.772C146.669 155.696 145.428 155.696 144.192 155.772C144.856 150.174 136.794 151.279 135.968 155.08C135.183 158.747 139.864 161.2 139.864 161.2C136.632 165.621 135.324 167.957 130.734 172.1C125.782 176.593 123.114 176.952 117.991 176.818L112.344 176.584C112.344 176.584 110.331 172.28 108.871 162.117C108.156 157.228 103.838 150.821 105.096 142.869C108.559 120.287 136.552 124.294 136.552 124.294C147.061 116.998 164.978 124.142 159.784 135.15Z" fill="#263238" fill-opacity="1.000000" fill-rule="nonzero"/>
	<path id="Vector" d="M158.203 152.241C156.293 152.57 154.351 152.738 152.405 152.744C150.47 152.897 148.523 152.897 146.587 152.744C148.496 152.421 150.433 152.255 152.375 152.25C154.314 152.096 156.264 152.093 158.203 152.241Z" fill="#263238" fill-opacity="1.000000" fill-rule="nonzero"/>
	<path id="Vector" d="M240.742 215.493L231.331 220.696L227.878 227.885L227.878 221.595C227.878 221.595 230.435 218.899 232.529 216.931C234.622 214.963 233.123 213.597 232.529 212.923C231.935 212.249 222.926 221.595 222.926 221.595L222.926 226.986C218.729 222.377 216.786 223.958 216.142 224.794C215.498 225.63 222.926 231.884 222.926 231.884L222.926 233.789L186.015 251.509L176.302 229.943L156.462 239.243L168.309 264.844C169.126 266.616 170.36 268.209 171.928 269.517C173.495 270.825 175.36 271.816 177.394 272.424C179.429 273.031 181.586 273.241 183.72 273.039C185.853 272.837 187.913 272.227 189.759 271.252L233.193 248.328L236.082 244.024C237.085 242.541 237.675 240.864 237.803 239.136L239.303 219.771C241.94 218.297 240.742 215.493 240.742 215.493Z" fill="#FFBE9D" fill-opacity="1.000000" fill-rule="nonzero"/>
	<path id="Vector" d="M186.196 251.536C185.319 254.569 184.098 257.513 182.552 260.325C183.441 257.296 184.662 254.352 186.196 251.536Z" fill="#EB996E" fill-opacity="1.000000" fill-rule="nonzero"/>
	<path id="Vector" d="M239.303 219.771C238.747 220.026 238.176 220.254 237.592 220.454C236.926 220.735 236.331 221.136 235.845 221.63C235.358 222.125 234.99 222.703 234.763 223.329C234.011 225.139 233.095 226.891 232.026 228.568C232.615 226.72 233.369 224.917 234.28 223.176C234.575 222.441 235.041 221.77 235.649 221.209C236.171 220.776 236.774 220.429 237.431 220.184C238.011 219.921 238.652 219.779 239.303 219.771Z" fill="#EB996E" fill-opacity="1.000000" fill-rule="nonzero"/>
	<path id="Vector" d="M239.162 222.835C238.999 222.855 238.842 222.907 238.705 222.988C238.567 223.068 238.452 223.176 238.367 223.302C238.075 223.805 237.703 224.596 237.36 225.441C236.982 226.51 236.538 227.56 236.032 228.586C236.033 227.439 236.318 226.307 236.867 225.27C237.192 224.514 237.607 223.791 238.105 223.114C238.196 223.001 238.314 222.907 238.449 222.839C238.585 222.771 238.735 222.729 238.89 222.718C239.082 222.718 239.172 222.808 239.162 222.835Z" fill="#EB996E" fill-opacity="1.000000" fill-rule="nonzero"/>
	<path id="Vector" d="M150.533 235.963L154.751 248.715L181.516 237.931C180.509 235.236 176.12 223.365 167.655 204.495C165.337 199.32 161.567 194.766 156.706 191.269C151.846 187.772 146.06 185.451 139.904 184.528C131.147 183.225 121.614 182.209 114.276 182.29C106.991 182.351 99.9501 184.641 94.3293 188.779C88.7086 192.917 84.8487 198.652 83.3947 205.025C81.1299 215.044 85.0959 221.667 82.5392 243.593L81.7238 298.74L153.191 301.085L150.533 235.963Z" fill="#EE4248" fill-opacity="1.000000" fill-rule="nonzero"/>
	<path id="Vector" d="M85.8608 243.009C85.8608 243.009 75.926 243.53 72.0204 236.817C72.0204 236.817 82.7203 201.502 86.4547 197.342L85.8608 243.009Z" fill="#EE4248" fill-opacity="1.000000" fill-rule="nonzero"/>
	<path id="Vector" d="M169.004 208.053C168.748 208.229 168.463 208.369 168.158 208.466C167.283 208.75 166.362 208.905 165.431 208.925C163.967 208.918 162.51 208.752 161.092 208.43C159.441 208.098 157.599 207.604 155.536 207.298C154.461 207.182 153.378 207.131 152.295 207.145C151.123 207.228 149.961 207.4 148.822 207.658C146.295 208.271 143.868 209.177 141.605 210.353C139.159 211.54 136.673 212.941 134.025 214.325C131.309 215.83 128.399 217.037 125.359 217.92C122.235 218.784 118.899 218.831 115.746 218.054C112.887 217.228 110.222 215.94 107.885 214.253C105.64 212.699 103.687 211.063 101.845 209.572C100.165 208.174 98.3831 206.877 96.5104 205.69C93.8444 203.911 90.7365 202.733 87.4512 202.257C86.2376 202.196 85.0211 202.196 83.8074 202.257C84.1043 202.149 84.4156 202.077 84.7335 202.041C85.6452 201.912 86.5701 201.873 87.4915 201.925C90.8845 202.276 94.1206 203.396 96.8929 205.178C98.8265 206.343 100.663 207.631 102.389 209.033C104.261 210.506 106.234 212.106 108.428 213.597C110.684 215.193 113.245 216.411 115.988 217.192C118.963 217.907 122.104 217.854 125.047 217.039C128.003 216.176 130.837 215.009 133.492 213.561C136.119 212.205 138.625 210.803 141.122 209.617C143.47 208.426 145.985 207.519 148.601 206.921C149.797 206.665 151.016 206.503 152.244 206.436C153.38 206.446 154.513 206.524 155.637 206.669C157.771 207.029 159.592 207.568 161.213 207.945C162.581 208.297 163.989 208.508 165.41 208.574C166.631 208.568 167.844 208.392 169.004 208.053Z" fill="#263238" fill-opacity="1.000000" fill-rule="nonzero"/>
	<path id="Vector" d="M151.006 252.057C149.642 251.332 148.136 250.844 146.567 250.62C144.859 250.44 143.129 250.525 141.454 250.871C139.541 251.213 137.478 251.833 135.213 252.336C131.327 253.228 127.258 253.277 123.346 252.48C120.326 251.851 118.705 250.997 118.756 250.907C118.806 250.817 120.557 251.383 123.497 251.806C127.308 252.385 131.213 252.247 134.962 251.401C137.166 250.907 139.27 250.305 141.273 249.991C143.058 249.668 144.895 249.65 146.688 249.937C147.902 250.129 149.055 250.552 150.07 251.177C150.775 251.671 151.057 252.021 151.006 252.057Z" fill="#263238" fill-opacity="1.000000" fill-rule="nonzero"/>
	<path id="Vector" d="M151.731 284.982C151.731 284.982 151.459 285.387 150.785 285.953C149.811 286.748 148.72 287.422 147.544 287.957C145.778 288.775 143.825 289.218 141.836 289.25C139.409 289.191 137.017 288.715 134.79 287.849C132.445 287.031 130.301 286.114 128.278 285.602C126.49 285.115 124.618 284.92 122.752 285.027C121.505 285.094 120.29 285.4 119.189 285.926C118.403 286.312 118.041 286.627 117.971 286.564C117.9 286.501 118.212 286.123 118.977 285.665C120.068 284.959 121.343 284.514 122.681 284.371C124.645 284.166 126.635 284.304 128.54 284.775C130.798 285.402 133.016 286.14 135.183 286.986C137.282 287.806 139.529 288.284 141.816 288.397C143.674 288.404 145.511 288.051 147.202 287.363C150.171 286.168 151.63 284.847 151.731 284.982Z" fill="#263238" fill-opacity="1.000000" fill-rule="nonzero"/>
	<g opacity="0.300000">
		<g opacity="0.300000">
			<path id="Vector" d="M74.2249 243.629C83.586 245.336 93.1988 243.629 102.731 243.107C108.519 242.802 114.931 242.209 119.501 245.417C123.124 247.933 124.533 252.165 125.631 256.155C129.657 271.377 130.351 284.973 131.247 300.582L84.9449 299.683L74.2249 243.629Z" fill="#000000" fill-opacity="1.000000" fill-rule="nonzero"/>
		</g>
	</g>
	<g opacity="0.300000">
		<path id="Vector" d="M86.4547 214.972L88.4578 240.744L82.358 240.744L86.4547 214.972Z" fill="#000000" fill-opacity="1.000000" fill-rule="nonzero"/>
	</g>
	<path id="Vector" d="M99.4597 298.704L191.36 301.606C198.531 301.831 205.318 304.559 210.261 309.204C215.203 313.848 217.908 320.038 217.793 326.444L216.987 373L183.287 373L181.113 332.86L99.4597 330.937L99.4597 298.704Z" fill="#263238" fill-opacity="1.000000" fill-rule="nonzero"/>
	<path id="Vector" d="M121.242 341.271L130.281 341.271L130.281 370.807L121.242 370.807L121.242 341.271Z" fill="#455A64" fill-opacity="1.000000" fill-rule="evenodd"/>
	<path id="Vector" d="M45.3966 247.43L45.3966 318.599C45.3992 323.08 47.3952 327.377 50.9457 330.545C54.4961 333.713 59.3105 335.492 64.3302 335.492L117.417 335.492L117.417 247.43C117.414 245.432 116.523 243.516 114.94 242.104C113.356 240.693 111.21 239.899 108.972 239.899L53.8317 239.899C51.5945 239.899 49.449 240.693 47.8672 242.105C46.2853 243.517 45.3966 245.433 45.3966 247.43Z" fill="#455A64" fill-opacity="1.000000" fill-rule="nonzero"/>
	<path id="Vector" d="M188.864 341.271L59.5792 341.271C59.5951 337.943 61.0869 334.757 63.7279 332.41C66.369 330.062 69.9442 328.744 73.6712 328.744L174.882 328.744C178.604 328.744 182.173 330.064 184.804 332.413C187.436 334.762 188.914 337.948 188.914 341.271L188.864 341.271Z" fill="#455A64" fill-opacity="1.000000" fill-rule="nonzero"/>
	<path id="Vector" d="M117.417 327.082C117.476 327.785 117.408 328.492 117.216 329.175C116.782 330.778 115.837 332.233 114.495 333.366C113.154 334.498 111.473 335.259 109.656 335.555C108.835 335.674 108.002 335.726 107.17 335.708L104.563 335.708L92.9471 335.708L71.8091 335.708L65.4173 335.636L63.676 335.636C63.4729 335.642 63.2698 335.624 63.072 335.582C63.2718 335.554 63.4737 335.539 63.676 335.537L65.4173 335.492L71.8091 335.412L92.9471 335.322L107.17 335.322C107.978 335.349 108.787 335.307 109.586 335.196C110.999 334.978 112.334 334.464 113.481 333.695C115.184 332.572 116.414 330.971 116.974 329.148C117.397 327.836 117.347 327.073 117.417 327.082Z" fill="#263238" fill-opacity="1.000000" fill-rule="nonzero"/>
	<path id="Vector" d="M133.683 341.513C131.052 341.75 128.405 341.828 125.761 341.747C123.115 341.828 120.465 341.75 117.83 341.513C120.465 341.282 123.115 341.203 125.761 341.279C128.405 341.204 131.051 341.282 133.683 341.513Z" fill="#263238" fill-opacity="1.000000" fill-rule="nonzero"/>
	<path id="Vector" d="M173.02 336.122C172.895 335.833 172.814 335.531 172.779 335.223C172.648 334.639 172.477 333.794 172.275 332.698C171.863 330.496 171.269 327.306 170.624 323.388C170.262 321.429 169.97 319.246 169.487 316.972C169.356 316.406 169.235 315.831 169.105 315.238C168.974 314.645 168.722 314.088 168.531 313.495C168.43 313.207 168.34 312.902 168.239 312.596C168.138 312.291 167.987 312.012 167.856 311.698C167.585 311.104 167.343 310.502 167.051 309.9C165.773 307.44 164.157 305.13 162.24 303.026C160.146 300.791 157.71 298.831 155.002 297.203C152.307 295.556 149.348 294.284 146.225 293.429C143.327 292.608 140.316 292.148 137.277 292.063C131.418 291.946 126.084 291.973 121.634 291.919C117.185 291.865 113.582 291.821 111.086 291.767C109.837 291.767 108.871 291.713 108.207 291.677C107.868 291.686 107.53 291.656 107.2 291.587C107.529 291.511 107.868 291.478 108.207 291.488L111.086 291.398C113.572 291.344 117.185 291.299 121.634 291.254C126.084 291.209 131.388 291.129 137.307 291.2C140.44 291.26 143.548 291.717 146.537 292.557C149.764 293.42 152.821 294.726 155.596 296.43C158.393 298.101 160.902 300.126 163.045 302.442C165.007 304.618 166.654 307.006 167.947 309.55C168.239 310.161 168.48 310.79 168.752 311.392C168.873 311.698 169.004 311.994 169.135 312.291C169.266 312.587 169.326 312.902 169.427 313.189C169.618 313.8 169.799 314.393 169.98 314.986C170.161 315.579 170.232 316.182 170.353 316.784C170.806 319.111 171.047 321.277 171.359 323.236C171.933 327.18 172.366 330.379 172.678 332.59C172.819 333.695 172.93 334.558 172.99 335.142C173.055 335.465 173.065 335.796 173.02 336.122Z" fill="#455A64" fill-opacity="1.000000" fill-rule="nonzero"/>
	<path id="Vector" d="M9.87448 250C9.87448 250 8.24384 254.07 11.3642 257.018L17.8566 257.018C17.8566 257.018 17.2829 250.44 9.87448 250Z" fill="#EE4248" fill-opacity="1.000000" fill-rule="nonzero"/>
	<g opacity="0.400000">
		<path id="Vector" d="M9.87448 250C9.87448 250 8.24384 254.07 11.3642 257.018L17.8566 257.018C17.8566 257.018 17.2829 250.44 9.87448 250Z" fill="#000000" fill-opacity="1.000000" fill-rule="nonzero"/>
	</g>
	<path id="Vector" d="M20.9367 241.616C20.6649 241.328 15.1086 249.092 18.229 257.018L24.349 257.018C24.349 257.018 26.7446 247.798 20.9367 241.616Z" fill="#EE4248" fill-opacity="1.000000" fill-rule="nonzero"/>
	<path id="Vector" d="M31.7775 250C29.7769 250.119 27.9007 250.909 26.5235 252.21C25.1464 253.511 24.3698 255.228 24.349 257.018L30.4589 257.018C30.4589 257.018 33.1364 253.657 31.7775 250Z" fill="#EE4248" fill-opacity="1.000000" fill-rule="nonzero"/>
	<path id="Vector" d="M10.8609 256.712C8.75018 258.065 7.11313 259.925 6.1402 262.076C5.16724 264.226 4.89841 266.579 5.36499 268.861C6.93524 276.949 16.4977 280.435 16.4977 280.435L27.0969 280.435C27.0969 280.435 37.8874 276.185 37.6257 267.441C37.364 258.698 30.942 256.838 30.942 256.838L10.8609 256.712Z" fill="#455A64" fill-opacity="1.000000" fill-rule="nonzero"/>
	<path id="Vector" d="M37.5854 266.462C37.3455 266.101 37.0508 265.771 36.7097 265.483C36.2168 265.131 35.6507 264.871 35.0442 264.717C34.4377 264.562 33.8029 264.517 33.1766 264.584C31.3021 264.901 29.5308 265.589 27.9928 266.597C27.0159 267.155 25.981 267.627 24.9026 268.008C23.7128 268.412 22.424 268.526 21.1682 268.34C18.5813 267.945 16.5178 266.705 14.5852 265.878C12.9408 265.021 11.0506 264.615 9.14972 264.71C7.87888 264.827 6.70227 265.362 5.84814 266.21C5.56274 266.545 5.31967 266.906 5.12341 267.289C5.13016 267.176 5.15384 267.064 5.19388 266.956C5.29819 266.633 5.46512 266.329 5.6871 266.058C6.53113 265.113 7.75586 264.5 9.0994 264.35C11.0979 264.194 13.1018 264.592 14.8369 265.492C16.85 266.318 18.8632 267.513 21.289 267.873C22.4588 268.052 23.661 267.95 24.7718 267.576C25.8242 267.21 26.8353 266.756 27.7915 266.219C29.3967 265.202 31.2429 264.529 33.1867 264.251C33.8572 264.193 34.534 264.26 35.1737 264.449C35.8133 264.638 36.4017 264.944 36.901 265.348C37.1607 265.576 37.3721 265.843 37.5251 266.138C37.5754 266.345 37.6056 266.453 37.5854 266.462Z" fill="#263238" fill-opacity="1.000000" fill-rule="nonzero"/>
	<path id="Vector" d="M37.7365 268.574C37.495 268.219 37.2041 267.893 36.8708 267.603C36.3854 267.25 35.8246 266.988 35.2226 266.833C34.6205 266.679 33.9895 266.635 33.3679 266.705C31.514 267.023 29.7634 267.708 28.2444 268.709C27.2928 269.27 26.2813 269.745 25.2247 270.128C24.0457 270.534 22.7663 270.648 21.5205 270.461C18.9538 270.065 16.9104 268.825 14.9979 267.999C13.3788 267.143 11.5114 266.737 9.6329 266.83C8.37027 266.953 7.2041 267.492 6.36151 268.34C6.08044 268.671 5.84393 269.03 5.65692 269.409C5.65692 269.409 5.65692 269.293 5.71732 269.077C5.8262 268.771 5.98935 268.483 6.20047 268.223C7.03098 267.281 8.24088 266.665 9.57251 266.507C11.5374 266.348 13.5094 266.734 15.2194 267.612C17.1721 268.439 19.2457 269.634 21.6011 269.993C22.7575 270.173 23.9468 270.071 25.0435 269.697C26.0805 269.332 27.075 268.878 28.0129 268.34C29.5993 267.323 31.4293 266.649 33.3578 266.372C34.0141 266.32 34.6754 266.39 35.2994 266.579C35.9234 266.767 36.4963 267.071 36.9815 267.468C37.2367 267.694 37.4446 267.959 37.5955 268.25C37.6623 268.35 37.7099 268.46 37.7365 268.574Z" fill="#263238" fill-opacity="1.000000" fill-rule="nonzero"/>
	<path id="Vector" d="M10.2268 268.52C10.2268 268.466 10.5086 268.304 10.881 268.574C10.9936 268.66 11.0741 268.776 11.1118 268.904C11.1495 269.032 11.1428 269.168 11.0924 269.293C11.0305 269.446 10.9143 269.578 10.7614 269.668C10.6085 269.758 10.4271 269.801 10.2444 269.791C10.0617 269.78 9.8876 269.718 9.74832 269.612C9.60901 269.506 9.51199 269.362 9.47186 269.203C9.43646 269.08 9.43933 268.95 9.4801 268.828C9.5209 268.706 9.59808 268.597 9.70337 268.511C10.0657 268.241 10.3778 268.367 10.3576 268.421C10.3375 268.475 10.1362 268.52 9.9852 268.736C9.95261 268.789 9.93555 268.85 9.93555 268.911C9.93555 268.972 9.95261 269.032 9.9852 269.086C10.0147 269.149 10.0616 269.204 10.1214 269.247C10.1812 269.289 10.2521 269.317 10.3275 269.329C10.4018 269.326 10.4742 269.307 10.5377 269.272C10.6011 269.238 10.6535 269.189 10.6898 269.131C10.7235 269.081 10.7413 269.023 10.7413 268.965C10.7413 268.906 10.7235 268.849 10.6898 268.798C10.4684 268.592 10.2368 268.583 10.2268 268.52Z" fill="#263238" fill-opacity="1.000000" fill-rule="nonzero"/>
	<path id="Vector" d="M22.2352 265.105C22.2352 265.051 22.5171 264.88 22.8996 265.159C23.0081 265.248 23.0851 265.364 23.1208 265.491C23.1566 265.619 23.1497 265.754 23.1009 265.878C23.0374 266.031 22.9214 266.161 22.7695 266.252C22.6177 266.342 22.4377 266.387 22.2554 266.381C22.0734 266.366 21.9013 266.3 21.7625 266.194C21.6237 266.088 21.5252 265.946 21.4803 265.788C21.4438 265.664 21.4471 265.533 21.4898 265.411C21.5325 265.289 21.6129 265.18 21.7219 265.096C22.0842 264.826 22.3963 264.952 22.3661 265.006C22.3359 265.06 22.1447 265.105 21.9937 265.321C21.9635 265.375 21.9478 265.435 21.9478 265.496C21.9478 265.557 21.9635 265.617 21.9937 265.671C22.0231 265.734 22.07 265.789 22.1298 265.832C22.1897 265.874 22.2606 265.902 22.3359 265.914C22.4105 265.912 22.4832 265.893 22.5469 265.858C22.6105 265.824 22.6628 265.775 22.6982 265.716C22.7331 265.666 22.7515 265.609 22.7515 265.55C22.7515 265.491 22.7331 265.434 22.6982 265.384C22.4768 265.177 22.2453 265.168 22.2352 265.105Z" fill="#263238" fill-opacity="1.000000" fill-rule="nonzero"/>
	<path id="Vector" d="M33.8812 268.673C33.8812 268.619 34.1631 268.457 34.5456 268.726C34.6541 268.816 34.731 268.931 34.7668 269.059C34.8026 269.187 34.7957 269.321 34.7469 269.445C34.6833 269.598 34.5674 269.729 34.4156 269.819C34.2637 269.91 34.0837 269.955 33.9014 269.949C33.7207 269.934 33.5495 269.87 33.4109 269.765C33.2723 269.661 33.1729 269.521 33.1263 269.364C33.0901 269.239 33.0936 269.107 33.1362 268.984C33.1789 268.86 33.259 268.749 33.3679 268.664C33.7303 268.394 34.0423 268.52 34.0121 268.574C33.9819 268.628 33.7906 268.682 33.6396 268.888C33.5973 268.941 33.5711 269.004 33.5637 269.068C33.5563 269.133 33.5678 269.199 33.5972 269.259C33.6266 269.318 33.6729 269.37 33.7315 269.409C33.7901 269.448 33.859 269.473 33.9315 269.481C34.0061 269.48 34.0789 269.461 34.1426 269.426C34.2062 269.391 34.2584 269.342 34.2939 269.284C34.3287 269.234 34.3472 269.176 34.3472 269.117C34.3472 269.059 34.3287 269.001 34.2939 268.951C34.1228 268.753 33.9014 268.735 33.8812 268.673Z" fill="#263238" fill-opacity="1.000000" fill-rule="nonzero"/>
	<path id="Vector" d="M340.282 248.463L343.735 280.435L361.189 280.435L365.366 248.463L340.282 248.463Z" fill="#455A64" fill-opacity="1.000000" fill-rule="nonzero"/>
	<path id="Vector" d="M340.282 244.329C339.208 245.527 338.629 247.019 338.642 248.553L367.007 248.553C367.145 247.783 367.067 246.994 366.781 246.257C366.495 245.52 366.009 244.858 365.366 244.329L340.282 244.329Z" fill="#263238" fill-opacity="1.000000" fill-rule="nonzero"/>
	<path id="Vector" d="M343.514 241.4L342.557 244.563L363.967 244.707L362.548 241.364L343.514 241.4Z" fill="#263238" fill-opacity="1.000000" fill-rule="nonzero"/>
	<path id="Vector" d="M339.96 256.469C339.96 256.766 341.974 272.59 341.974 272.59L363.303 272.59L365.316 256.496L339.96 256.469Z" fill="#EE4248" fill-opacity="1.000000" fill-rule="nonzero"/>
</svg>
