<svg width="119.000000" height="56.000000" viewBox="0 0 119 56" fill="none" xmlns="http://www.w3.org/2000/svg" xmlns:xlink="http://www.w3.org/1999/xlink">
	<desc>
			Created with Pixso.
	</desc>
	<defs/>
	<path id="DSI" d="M2.57812 45L2.57812 10.875L13.5703 10.875Q18.0938 10.875 21.7031 12.9258Q25.3125 14.9766 27.3398 18.7148Q29.3672 22.4531 29.3906 27.0938L29.3906 28.6641Q29.3906 33.3516 27.4102 37.0664Q25.4297 40.7812 21.832 42.8789Q18.2344 44.9766 13.8047 45L2.57812 45ZM10.8047 17.2266L10.8047 38.6719L13.6641 38.6719Q17.2031 38.6719 19.1016 36.1523Q21 33.6328 21 28.6641L21 27.1875Q21 22.2422 19.1016 19.7344Q17.2031 17.2266 13.5703 17.2266L10.8047 17.2266Z" fill="#85171A" fill-opacity="1.000000" fill-rule="evenodd"/>
	<path id="DSI" d="M48.8109 35.9297Q48.8109 34.125 47.5336 33.1172Q46.2562 32.1094 43.0453 31.0312Q39.8344 29.9531 37.7953 28.9453Q31.1625 25.6875 31.1625 19.9922Q31.1625 17.1562 32.8148 14.9883Q34.4672 12.8203 37.4906 11.6133Q40.5141 10.4062 44.2875 10.4062Q47.9672 10.4062 50.8852 11.7188Q53.8031 13.0312 55.4203 15.457Q57.0375 17.8828 57.0375 21L48.8344 21Q48.8344 18.9141 47.557 17.7656Q46.2797 16.6172 44.1 16.6172Q41.8969 16.6172 40.6195 17.5898Q39.3422 18.5625 39.3422 20.0625Q39.3422 21.375 40.7484 22.4414Q42.1547 23.5078 45.6937 24.6445Q49.2328 25.7812 51.5062 27.0938Q57.0375 30.2812 57.0375 35.8828Q57.0375 40.3594 53.6625 42.9141Q50.2875 45.4688 44.4047 45.4688Q40.2562 45.4688 36.893 43.9805Q33.5297 42.4922 31.8305 39.9023Q30.1313 37.3125 30.1313 33.9375L38.3812 33.9375Q38.3812 36.6797 39.7992 37.9805Q41.2172 39.2812 44.4047 39.2812Q46.4437 39.2812 47.6273 38.4023Q48.8109 37.5234 48.8109 35.9297Z" fill="#DC2025" fill-opacity="1.000000" fill-rule="evenodd"/>
	<path id="DSI" d="M67.6219 45L59.4187 45L59.4187 10.875L67.6219 10.875L67.6219 45Z" fill="#FEBA08" fill-opacity="1.000000" fill-rule="evenodd"/>
	<path id="DWIDASA" d="M71.7227 19L71.7227 11.8906L73.8223 11.8906Q74.7646 11.8906 75.4946 12.3105Q76.2246 12.7305 76.625 13.502Q77.0254 14.2734 77.0254 15.2695L77.0254 15.626Q77.0254 16.6367 76.6226 17.4033Q76.2197 18.1699 75.4751 18.585Q74.7305 19 73.7686 19L71.7227 19ZM72.958 12.8867L72.958 18.0137L73.7637 18.0137Q74.7354 18.0137 75.2554 17.4058Q75.7754 16.7979 75.7852 15.6602L75.7852 15.2646Q75.7852 14.1074 75.2822 13.4971Q74.7793 12.8867 73.8223 12.8867L72.958 12.8867ZM84.482 17.2422L85.5758 11.8906L86.8014 11.8906L85.1607 19L83.9791 19L82.6266 13.8096L81.2447 19L80.0582 19L78.4176 11.8906L79.6432 11.8906L80.7467 17.2324L82.1041 11.8906L83.1393 11.8906L84.482 17.2422ZM89.6584 19L88.4279 19L88.4279 11.8906L89.6584 11.8906L89.6584 19ZM91.827 19L91.827 11.8906L93.9266 11.8906Q94.8689 11.8906 95.5989 12.3105Q96.3289 12.7305 96.7293 13.502Q97.1297 14.2734 97.1297 15.2695L97.1297 15.626Q97.1297 16.6367 96.7269 17.4033Q96.324 18.1699 95.5794 18.585Q94.8348 19 93.8728 19L91.827 19ZM93.0623 12.8867L93.0623 18.0137L93.868 18.0137Q94.8396 18.0137 95.3597 17.4058Q95.8797 16.7979 95.8895 15.6602L95.8895 15.2646Q95.8895 14.1074 95.3865 13.4971Q94.8836 12.8867 93.9266 12.8867L93.0623 12.8867ZM102.887 17.3447L100.133 17.3447L99.557 19L98.2729 19L100.958 11.8906L102.067 11.8906L104.757 19L103.468 19L102.887 17.3447ZM100.48 16.3486L102.54 16.3486L101.51 13.3994L100.48 16.3486ZM109.929 17.1689Q109.929 16.7002 109.599 16.4463Q109.27 16.1924 108.41 15.9336Q107.551 15.6748 107.043 15.3574Q106.071 14.7471 106.071 13.7656Q106.071 12.9062 106.772 12.3496Q107.473 11.793 108.591 11.793Q109.333 11.793 109.914 12.0664Q110.495 12.3398 110.827 12.8452Q111.159 13.3506 111.159 13.9658L109.929 13.9658Q109.929 13.4092 109.58 13.0942Q109.23 12.7793 108.581 12.7793Q107.976 12.7793 107.641 13.0381Q107.307 13.2969 107.307 13.7607Q107.307 14.1514 107.668 14.4126Q108.029 14.6738 108.859 14.9204Q109.689 15.167 110.192 15.4819Q110.695 15.7969 110.93 16.2046Q111.164 16.6123 111.164 17.1592Q111.164 18.0479 110.483 18.5728Q109.802 19.0977 108.635 19.0977Q107.863 19.0977 107.216 18.812Q106.569 18.5264 106.21 18.0234Q105.852 17.5205 105.852 16.8516L107.087 16.8516Q107.087 17.457 107.487 17.7891Q107.888 18.1211 108.635 18.1211Q109.279 18.1211 109.604 17.8599Q109.929 17.5986 109.929 17.1689ZM116.878 17.3447L114.124 17.3447L113.547 19L112.263 19L114.949 11.8906L116.057 11.8906L118.748 19L117.459 19L116.878 17.3447ZM114.47 16.3486L116.531 16.3486L115.501 13.3994L114.47 16.3486Z" fill="#000000" fill-opacity="0.600000" fill-rule="evenodd"/>
	<path id="SAMSARA" d="M75.4385 28.1689Q75.4385 27.7002 75.1089 27.4463Q74.7793 27.1924 73.9199 26.9336Q73.0605 26.6748 72.5527 26.3574Q71.5811 25.7471 71.5811 24.7656Q71.5811 23.9062 72.2817 23.3496Q72.9824 22.793 74.1006 22.793Q74.8428 22.793 75.4238 23.0664Q76.0049 23.3398 76.3369 23.8452Q76.6689 24.3506 76.6689 24.9658L75.4385 24.9658Q75.4385 24.4092 75.0894 24.0942Q74.7402 23.7793 74.0908 23.7793Q73.4854 23.7793 73.1509 24.0381Q72.8164 24.2969 72.8164 24.7607Q72.8164 25.1514 73.1777 25.4126Q73.5391 25.6738 74.3691 25.9204Q75.1992 26.167 75.7021 26.4819Q76.2051 26.7969 76.4395 27.2046Q76.6738 27.6123 76.6738 28.1592Q76.6738 29.0479 75.9927 29.5728Q75.3115 30.0977 74.1445 30.0977Q73.373 30.0977 72.7261 29.812Q72.0791 29.5264 71.7202 29.0234Q71.3613 28.5205 71.3613 27.8516L72.5967 27.8516Q72.5967 28.457 72.9971 28.7891Q73.3975 29.1211 74.1445 29.1211Q74.7891 29.1211 75.1138 28.8599Q75.4385 28.5986 75.4385 28.1689ZM81.8873 28.3447L79.1334 28.3447L78.5572 30L77.273 30L79.9586 22.8906L81.067 22.8906L83.7574 30L82.4684 30L81.8873 28.3447ZM79.4801 27.3486L81.5406 27.3486L80.5104 24.3994L79.4801 27.3486ZM86.3147 22.8906L88.3654 28.3398L90.4113 22.8906L92.008 22.8906L92.008 30L90.7775 30L90.7775 27.6562L90.8996 24.5215L88.8 30L87.9162 30L85.8215 24.5264L85.9436 27.6562L85.9436 30L84.7131 30L84.7131 22.8906L86.3147 22.8906ZM97.3338 28.1689Q97.3338 27.7002 97.0042 27.4463Q96.6746 27.1924 95.8152 26.9336Q94.9559 26.6748 94.448 26.3574Q93.4764 25.7471 93.4764 24.7656Q93.4764 23.9062 94.177 23.3496Q94.8777 22.793 95.9959 22.793Q96.7381 22.793 97.3191 23.0664Q97.9002 23.3398 98.2322 23.8452Q98.5643 24.3506 98.5643 24.9658L97.3338 24.9658Q97.3338 24.4092 96.9847 24.0942Q96.6355 23.7793 95.9861 23.7793Q95.3807 23.7793 95.0462 24.0381Q94.7117 24.2969 94.7117 24.7607Q94.7117 25.1514 95.073 25.4126Q95.4344 25.6738 96.2645 25.9204Q97.0945 26.167 97.5975 26.4819Q98.1004 26.7969 98.3348 27.2046Q98.5691 27.6123 98.5691 28.1592Q98.5691 29.0479 97.888 29.5728Q97.2068 30.0977 96.0398 30.0977Q95.2684 30.0977 94.6214 29.812Q93.9744 29.5264 93.6155 29.0234Q93.2566 28.5205 93.2566 27.8516L94.492 27.8516Q94.492 28.457 94.8924 28.7891Q95.2928 29.1211 96.0398 29.1211Q96.6844 29.1211 97.0091 28.8599Q97.3338 28.5986 97.3338 28.1689ZM103.783 28.3447L101.029 28.3447L100.453 30L99.1684 30L101.854 22.8906L102.962 22.8906L105.653 30L104.364 30L103.783 28.3447ZM101.375 27.3486L103.436 27.3486L102.406 24.3994L101.375 27.3486ZM109.221 27.2607L107.844 27.2607L107.844 30L106.608 30L106.608 22.8906L109.108 22.8906Q110.339 22.8906 111.008 23.4424Q111.677 23.9941 111.677 25.0391Q111.677 25.752 111.333 26.2329Q110.988 26.7139 110.373 26.9727L111.97 29.9365L111.97 30L110.646 30L109.221 27.2607ZM107.844 26.2695L109.113 26.2695Q109.738 26.2695 110.09 25.9546Q110.441 25.6396 110.441 25.0928Q110.441 24.5215 110.117 24.209Q109.792 23.8965 109.147 23.8867L107.844 23.8867L107.844 26.2695ZM116.978 28.3447L114.224 28.3447L113.648 30L112.364 30L115.049 22.8906L116.158 22.8906L118.848 30L117.559 30L116.978 28.3447ZM114.571 27.3486L116.631 27.3486L115.601 24.3994L114.571 27.3486Z" fill="#263238" fill-opacity="0.800000" fill-rule="evenodd"/>
	<path id="INDONESIA" d="M73.0264 43L71.7959 43L71.7959 35.8906L73.0264 35.8906L73.0264 43ZM79.6846 43L78.4492 43L75.2803 37.9561L75.2803 43L74.0449 43L74.0449 35.8906L75.2803 35.8906L78.459 40.9541L78.459 35.8906L79.6846 35.8906L79.6846 43ZM80.6445 43L80.6445 35.8906L82.7441 35.8906Q83.6865 35.8906 84.4165 36.3105Q85.1465 36.7305 85.5469 37.502Q85.9473 38.2734 85.9473 39.2695L85.9473 39.626Q85.9473 40.6367 85.5444 41.4033Q85.1416 42.1699 84.397 42.585Q83.6523 43 82.6904 43L80.6445 43ZM81.8799 36.8867L81.8799 42.0137L82.6855 42.0137Q83.6572 42.0137 84.1772 41.4058Q84.6973 40.7979 84.707 39.6602L84.707 39.2646Q84.707 38.1074 84.2041 37.4971Q83.7012 36.8867 82.7441 36.8867L81.8799 36.8867ZM92.3516 39.6309Q92.3516 40.6758 91.9902 41.4644Q91.6289 42.2529 90.9575 42.6753Q90.2861 43.0977 89.4121 43.0977Q88.5479 43.0977 87.8716 42.6753Q87.1953 42.2529 86.8267 41.4717Q86.458 40.6904 86.4531 39.6699L86.4531 39.2695Q86.4531 38.2295 86.8218 37.4336Q87.1904 36.6377 87.8618 36.2153Q88.5332 35.793 89.4023 35.793Q90.2715 35.793 90.9429 36.2104Q91.6143 36.6279 91.9805 37.4116Q92.3467 38.1953 92.3516 39.2354L92.3516 39.6309ZM91.1162 39.2598Q91.1162 38.0781 90.6694 37.4482Q90.2227 36.8184 89.4023 36.8184Q88.6016 36.8184 88.1499 37.4458Q87.6982 38.0732 87.6885 39.2207L87.6885 39.6309Q87.6885 40.8027 88.145 41.4424Q88.6016 42.082 89.4121 42.082Q90.2324 42.082 90.6743 41.457Q91.1162 40.832 91.1162 39.6309L91.1162 39.2598ZM98.7217 43L97.4863 43L94.3174 37.9561L94.3174 43L93.082 43L93.082 35.8906L94.3174 35.8906L97.4961 40.9541L97.4961 35.8906L98.7217 35.8906L98.7217 43ZM103.837 39.8262L100.917 39.8262L100.917 42.0137L104.33 42.0137L104.33 43L99.6816 43L99.6816 35.8906L104.296 35.8906L104.296 36.8867L100.917 36.8867L100.917 38.8496L103.837 38.8496L103.837 39.8262ZM108.552 41.1689Q108.552 40.7002 108.222 40.4463Q107.893 40.1924 107.033 39.9336Q106.174 39.6748 105.666 39.3574Q104.694 38.7471 104.694 37.7656Q104.694 36.9062 105.395 36.3496Q106.096 35.793 107.214 35.793Q107.956 35.793 108.537 36.0664Q109.118 36.3398 109.45 36.8452Q109.782 37.3506 109.782 37.9658L108.552 37.9658Q108.552 37.4092 108.203 37.0942Q107.854 36.7793 107.204 36.7793Q106.599 36.7793 106.264 37.0381Q105.93 37.2969 105.93 37.7607Q105.93 38.1514 106.291 38.4126Q106.652 38.6738 107.482 38.9204Q108.312 39.167 108.815 39.4819Q109.318 39.7969 109.553 40.2046Q109.787 40.6123 109.787 41.1592Q109.787 42.0479 109.106 42.5728Q108.425 43.0977 107.258 43.0977Q106.486 43.0977 105.839 42.812Q105.192 42.5264 104.833 42.0234Q104.475 41.5205 104.475 40.8516L105.71 40.8516Q105.71 41.457 106.11 41.7891Q106.511 42.1211 107.258 42.1211Q107.902 42.1211 108.227 41.8599Q108.552 41.5986 108.552 41.1689ZM111.675 43L110.444 43L110.444 35.8906L111.675 35.8906L111.675 43ZM116.761 41.3447L114.007 41.3447L113.431 43L112.146 43L114.832 35.8906L115.94 35.8906L118.631 43L117.342 43L116.761 41.3447ZM114.354 40.3486L116.414 40.3486L115.384 37.3994L114.354 40.3486Z" fill="#263238" fill-opacity="1.000000" fill-rule="evenodd"/>
</svg>
