<svg width="562.966858" height="381.609985" viewBox="0 0 562.967 381.61" fill="none" xmlns="http://www.w3.org/2000/svg" xmlns:xlink="http://www.w3.org/1999/xlink">
	<desc>
			Created with Pixso.
	</desc>
	<defs/>
	<g opacity="0.000000">
		<g opacity="0.000000">
			<path id="Vector" d="M483.617 121.541C484.931 122.522 486.109 123.673 487.12 124.964L491.582 124.143L494.55 131.068L490.869 133.73C491.107 135.349 491.127 136.993 490.929 138.617L494.659 141.199L491.859 148.174L487.377 147.452C486.398 148.765 485.247 149.94 483.954 150.944L484.765 155.416L477.84 158.384L475.218 154.674C473.577 154.901 471.912 154.901 470.271 154.674L467.689 158.414L460.764 155.614L461.486 151.132C460.17 150.154 458.992 149.002 457.983 147.709L453.522 148.52L450.554 141.595L454.224 138.934C454.007 137.292 454.007 135.629 454.224 133.987L450.484 131.523L453.284 124.598L457.766 125.31C458.747 124 459.898 122.825 461.189 121.818L460.378 117.307L467.303 114.339L469.964 118.009C471.604 117.77 473.268 117.754 474.911 117.96L477.483 114.23L484.458 117.03L483.736 121.511L483.617 121.541ZM475.851 129.011C474.373 128.417 472.752 128.275 471.194 128.603C469.635 128.931 468.209 129.713 467.095 130.852C465.981 131.99 465.23 133.433 464.936 134.998C464.642 136.563 464.819 138.181 465.444 139.645C466.069 141.11 467.115 142.357 468.448 143.227C469.782 144.098 471.344 144.554 472.936 144.537C474.529 144.52 476.08 144.031 477.395 143.133C478.71 142.234 479.729 140.965 480.323 139.488C480.717 138.506 480.915 137.456 480.904 136.399C480.892 135.341 480.673 134.296 480.258 133.323C479.842 132.35 479.239 131.468 478.483 130.728C477.727 129.988 476.833 129.405 475.851 129.011Z" fill="#EBEBEB" fill-opacity="1.000000" fill-rule="evenodd"/>
		</g>
		<g opacity="0.000000">
			<path id="Vector" d="M69.4085 151.647C71.7805 153.422 73.9063 155.505 75.7304 157.84L83.8035 156.366L89.136 168.851L82.4481 173.699C82.8738 176.63 82.9037 179.605 82.5371 182.544L89.2845 187.204L84.2289 199.808L76.1657 198.433C74.3954 200.809 72.3121 202.936 69.9724 204.755L71.4466 212.828L58.961 218.22L54.1528 211.571C51.2219 211.995 48.2477 212.029 45.3081 211.67L40.6384 218.408L28.0341 213.332L29.3302 205.23C26.9582 203.454 24.8323 201.371 23.0083 199.036L14.9451 200.51L9.61253 188.025L16.2609 183.217C15.8369 180.286 15.8036 177.312 16.162 174.372L9.42456 169.742L14.49 157.148L22.5828 158.453C24.3611 156.081 26.4433 153.952 28.7761 152.122L27.302 144.019L39.7875 138.686L44.6057 145.335C47.5365 144.911 50.5107 144.877 53.4504 145.236L58.1102 138.488L70.7144 143.554L69.4085 151.647ZM55.3796 165.161C52.7068 164.087 49.7754 163.829 46.9561 164.421C44.1368 165.012 41.5563 166.427 39.5411 168.485C37.5258 170.544 36.1662 173.153 35.6344 175.985C35.1026 178.816 35.4223 181.741 36.5532 184.39C37.6842 187.04 39.5754 189.294 41.9878 190.869C44.4002 192.443 47.2253 193.267 50.1059 193.235C52.9864 193.204 55.7929 192.319 58.1704 190.693C60.5479 189.066 62.3896 186.771 63.4626 184.097C64.8978 180.514 64.8528 176.508 63.3374 172.958C61.822 169.407 58.96 166.604 55.3796 165.161Z" fill="#EBEBEB" fill-opacity="1.000000" fill-rule="evenodd"/>
		</g>
		<g opacity="0.000000">
			<path id="Vector" d="M36.2852 88.4474C37.5959 89.4286 38.7703 90.5797 39.7776 91.8705L44.2396 91.0593L47.2076 97.9847L43.5371 100.646C43.7594 102.287 43.7594 103.951 43.5371 105.593L47.267 108.175L44.4671 115.1L39.9953 114.378C39.0107 115.692 37.8563 116.87 36.5622 117.88L37.3834 122.342L30.458 125.31L27.7966 121.64C26.1745 121.853 24.5315 121.853 22.9093 121.64L20.3271 125.37L13.4017 122.57L14.1239 118.088C12.811 117.11 11.6362 115.958 10.6315 114.665L6.15969 115.476L3.19165 108.551L6.87202 105.89C6.63281 104.267 6.61617 102.619 6.82255 100.992L3.08282 98.42L5.88267 91.4451L10.3644 92.1673C11.3455 90.8536 12.4966 89.6759 13.7875 88.665L12.9763 84.2031L19.9017 81.235L22.563 84.9154C24.2018 84.6734 25.8657 84.6534 27.5097 84.8561L30.0919 81.1262L37.0173 83.9261L36.305 88.4078L36.2852 88.4474ZM28.5189 95.9169C27.0402 95.3216 25.4182 95.1779 23.8579 95.504C22.2976 95.8301 20.869 96.6114 19.7525 97.7491C18.636 98.8868 17.8818 100.33 17.5852 101.896C17.2885 103.462 17.4627 105.081 18.0858 106.548C18.7089 108.016 19.7529 109.265 21.0858 110.139C22.4188 111.013 23.981 111.473 25.5749 111.46C27.1689 111.446 28.7231 110.961 30.0413 110.064C31.3595 109.168 32.3824 107.901 32.9808 106.424C33.3789 105.441 33.5792 104.389 33.5703 103.329C33.5615 102.269 33.3436 101.221 32.9291 100.245C32.5147 99.2689 31.9118 98.3843 31.155 97.6417C30.3983 96.899 29.5025 96.3129 28.5189 95.9169Z" fill="#F0F0F0" fill-opacity="1.000000" fill-rule="evenodd"/>
		</g>
		<g opacity="0.000000">
			<path id="Vector" d="M127.157 33.4992C130.99 34.908 134.617 36.8246 137.94 39.1979L148.032 34.0731L159.983 48.4779L153.058 57.4512C154.771 61.1595 155.985 65.0785 156.669 69.1057L167.413 72.6179L165.682 91.2571L154.462 92.7214C153.054 96.5578 151.137 100.188 148.764 103.515L153.889 113.606L139.474 125.558L130.51 118.632C126.81 120.351 122.898 121.569 118.876 122.253L115.364 133.008L96.7243 131.266L95.3095 120.067C91.4762 118.658 87.8493 116.742 84.5257 114.368L74.4344 119.483L62.4831 105.078L69.4085 96.105C67.6954 92.3966 66.4812 88.4777 65.7974 84.4504L55.0531 80.9383L56.7251 62.2991L67.9443 60.8348C69.3481 56.9969 71.2579 53.3637 73.6231 50.0312L68.4983 39.9498L82.913 27.9985L91.8765 34.9239C95.5848 33.2017 99.5082 31.9871 103.541 31.3127L107.053 20.5586L125.692 22.3295L127.157 33.5487L127.157 33.4992ZM113.919 56.8676C109.964 56.4991 105.988 57.3118 102.495 59.203C99.0014 61.0942 96.1474 63.9789 94.2935 67.4922C92.4397 71.0055 91.6694 74.9897 92.0801 78.9408C92.4907 82.8919 94.0639 86.6325 96.6005 89.6895C99.1372 92.7466 102.523 94.9827 106.331 96.1151C110.139 97.2474 114.197 97.2252 117.992 96.0513C121.786 94.8773 125.148 92.6043 127.651 89.5197C130.154 86.4351 131.686 82.6776 132.054 78.7222C132.299 76.0963 132.024 73.4478 131.246 70.928C130.467 68.4083 129.199 66.0667 127.515 64.0371C125.831 62.0076 123.763 60.3297 121.43 59.0995C119.098 57.8693 116.545 57.1109 113.919 56.8676Z" fill="#E0E0E0" fill-opacity="1.000000" fill-rule="evenodd"/>
		</g>
	</g>
	<g opacity="0.000000">
		<g opacity="0.000000">
			<path id="Vector" d="M73.6232 50.0311C173.913 -37.3775 281.504 116.96 396.07 114.339C469.885 112.657 547.618 155.485 529.523 244.803C503.206 374.704 294.415 358.904 184.242 322.2C74.0684 285.495 -15.1903 127.457 73.6232 50.0311Z" fill="#F0F0F0" fill-opacity="1.000000" fill-rule="nonzero"/>
		</g>
	</g>
	<path id="Vector" d="M48.9192 341.888C61.2662 333.805 64.4025 318.322 64.2738 304.293C64.2738 301.958 64.5706 299.504 63.4923 297.427C62.4139 295.349 59.8317 293.895 57.6848 294.825C55.9139 295.596 55.1026 297.595 54.0737 299.237C52.7019 301.436 50.7367 303.202 48.4048 304.332C46.8812 305.064 45.0113 305.49 43.5471 304.649C41.5684 303.491 41.3606 300.692 41.4299 298.386C41.5684 294.06 41.7003 289.736 41.8256 285.416C42.0284 283.094 41.8479 280.754 41.2914 278.491C40.9963 277.37 40.4373 276.336 39.6611 275.475C38.8849 274.615 37.9139 273.953 36.8294 273.544C34.6034 272.871 31.8134 274.078 31.2792 276.334C31.1684 277.293 31.1222 278.258 31.1407 279.223C31.1427 279.707 31.0008 280.181 30.733 280.584C30.4653 280.987 30.0838 281.302 29.6369 281.488C29.1506 281.533 28.661 281.453 28.2143 281.256C27.7676 281.058 27.3787 280.75 27.0844 280.36C24.8319 277.842 23.0071 274.971 21.6826 271.862C20.36 268.758 18.6729 265.822 16.6567 263.116C14.5197 260.504 11.522 258.407 8.15822 258.169C4.79445 257.932 1.16355 259.871 0.243464 263.116C-0.676627 266.361 1.16355 269.735 3.2115 272.426C6.24237 276.438 9.83798 279.99 13.8865 282.972C14.6748 283.427 15.2983 284.119 15.6673 284.951C16.1323 286.514 14.6087 288.008 13.0555 288.483C11.2845 289.017 9.38501 288.79 7.55472 288.958C5.72443 289.126 3.70616 289.878 2.97405 291.57C1.9847 293.924 3.90403 296.457 5.83325 298.129C9.72462 301.494 14.1611 304.17 18.952 306.044C20.7186 306.572 22.3746 307.417 23.8393 308.537C25.2046 309.764 25.9961 311.871 25.1156 313.484C24.2351 315.096 22.0585 315.571 20.248 315.195C18.5022 314.675 16.8043 314.007 15.1727 313.197C11.9672 311.921 7.79216 312.039 5.65517 314.75C4.99529 315.676 4.56199 316.744 4.39016 317.867C4.21832 318.991 4.31274 320.14 4.66583 321.22C5.40478 323.37 6.56896 325.348 8.08896 327.038C13.0779 333.247 19.6213 338.026 27.0547 340.889C34.4847 343.639 41.42 344.5 48.9291 341.987L48.9192 341.888Z" fill="#EE4248" fill-opacity="1.000000" fill-rule="nonzero"/>
	<path id="Vector" d="M3.70618 260.059L3.93372 260.287L4.61637 260.91C5.21987 261.464 6.10039 262.275 7.21835 263.354C10.3732 266.393 13.2967 269.663 15.9642 273.138C17.6559 275.325 19.417 277.808 21.2571 280.499C23.0973 283.19 25.0266 286.099 26.9558 289.215C28.9905 292.46 30.8434 295.816 32.506 299.267C33.3766 301.058 34.1384 302.937 34.9101 304.847C35.6818 306.756 36.4733 308.695 37.2647 310.664C40.2979 318.016 42.9107 325.534 45.0905 333.182C46.8446 339.436 48.0007 345.843 48.5433 352.315C48.898 356.679 48.8649 361.066 48.4443 365.424C48.286 366.958 48.1376 368.155 48.009 368.966C47.9497 369.352 47.9101 369.659 47.8705 369.886C47.8639 369.992 47.8639 370.097 47.8705 370.203C47.9038 370.103 47.9303 370 47.9497 369.896C47.9497 369.669 48.0486 369.362 48.1179 368.976C48.2761 368.175 48.4542 366.997 48.6422 365.444C49.1272 361.078 49.2067 356.676 48.8797 352.296C48.3827 345.797 47.2527 339.362 45.506 333.083C43.3415 325.41 40.7352 317.868 37.7001 310.496C36.8954 308.517 36.1105 306.581 35.3454 304.688C34.5638 302.779 33.7921 300.889 32.9215 299.079C31.2425 295.618 29.3731 292.252 27.3218 288.997C25.3431 285.881 23.4238 282.992 21.5836 280.301C19.7435 277.61 17.9527 275.137 16.2313 272.95C13.5241 269.482 10.5468 266.233 7.32717 263.235C6.18943 262.176 5.27923 261.375 4.65595 260.851L3.95351 260.247C3.79522 260.118 3.71607 260.049 3.70618 260.059Z" fill="#263238" fill-opacity="1.000000" fill-rule="nonzero"/>
	<path id="Vector" d="M32.7731 299.059C32.8906 298.739 32.9736 298.407 33.0204 298.07C33.1589 297.427 33.337 296.507 33.525 295.349C33.9108 293.044 34.3461 289.848 34.8012 286.326C35.2563 282.804 35.7312 279.618 36.1566 277.323C36.3644 276.185 36.5425 275.255 36.6711 274.612C36.7604 274.289 36.8135 273.958 36.8294 273.623C36.6796 273.938 36.5699 274.27 36.5029 274.612C36.3248 275.236 36.0973 276.156 35.8499 277.294C35.3553 279.579 34.8606 282.765 34.3758 286.297C33.891 289.828 33.525 292.925 33.2282 295.339C33.0798 296.418 32.9512 297.318 32.8621 298.07C32.7943 298.395 32.7644 298.727 32.7731 299.059Z" fill="#263238" fill-opacity="1.000000" fill-rule="nonzero"/>
	<path id="Vector" d="M2.68713 292.767C3.08002 292.86 3.48082 292.917 3.88424 292.935C4.65593 293.024 5.78379 293.143 7.15898 293.341C9.91925 293.697 13.7183 294.33 17.8736 295.201C22.0288 296.071 25.7883 297.051 28.4299 297.812C29.7754 298.188 30.8538 298.525 31.5958 298.752C31.9767 298.895 32.3712 298.997 32.7731 299.059C32.4118 298.878 32.0382 298.723 31.6551 298.594C30.923 298.317 29.8545 297.941 28.5189 297.526C25.8576 296.675 22.1278 295.666 17.9626 294.785C14.4064 294.021 10.8138 293.436 7.19855 293.034C5.80357 292.876 4.67572 292.806 3.90403 292.777C3.49977 292.732 3.09207 292.729 2.68713 292.767Z" fill="#263238" fill-opacity="1.000000" fill-rule="nonzero"/>
	<path id="Vector" d="M45.1201 332.519C45.2079 332.41 45.2811 332.29 45.3378 332.163L45.8819 331.094C46.3469 330.164 46.99 328.809 47.7617 327.137C49.305 323.753 51.2837 319.014 53.391 313.761C55.4983 308.507 57.4474 303.749 58.9116 300.345L60.6627 296.309L61.1376 295.211C61.2365 294.953 61.286 294.815 61.2662 294.815C61.1847 294.926 61.1151 295.045 61.0585 295.171L60.5143 296.239C60.0394 297.169 59.4062 298.525 58.6346 300.197C57.0912 303.58 55.1125 308.319 52.9953 313.573C50.8781 318.826 48.9489 323.585 47.4747 326.988C46.7624 328.65 46.1688 330.016 45.7236 331.025L45.2586 332.123C45.1955 332.248 45.149 332.381 45.1201 332.519Z" fill="#263238" fill-opacity="1.000000" fill-rule="nonzero"/>
	<path id="Vector" d="M5.27924 318.787C5.27924 318.787 5.40785 318.866 5.66508 318.965L6.82261 319.37L11.0966 320.854C14.6978 322.101 19.6544 323.882 25.1255 325.86C30.5966 327.839 35.573 329.57 39.2039 330.748C41.0242 331.341 42.4885 331.797 43.5174 332.093L44.6947 332.43C44.9717 332.509 45.1201 332.539 45.1201 332.519C44.9944 332.449 44.8617 332.393 44.7244 332.351L43.5669 331.935L39.3028 330.461C35.7016 329.214 30.745 327.434 25.2739 325.455C19.8028 323.476 14.8165 321.735 11.1955 320.558C9.37513 319.974 7.901 319.509 6.88198 319.212L5.69476 318.876C5.55955 318.832 5.42036 318.802 5.27924 318.787Z" fill="#263238" fill-opacity="1.000000" fill-rule="nonzero"/>
	<path id="Vector" d="M450.405 237.492L390.718 237.215C389.01 237.211 387.319 236.87 385.743 236.211C384.167 235.552 382.737 234.588 381.534 233.374C380.332 232.161 379.381 230.722 378.736 229.14C378.092 227.558 377.766 225.864 377.777 224.156L378.411 74.9329C378.42 73.2275 378.765 71.5406 379.426 69.9686C380.087 68.3965 381.052 66.9703 382.265 65.7712C383.478 64.5722 384.915 63.624 386.494 62.9807C388.074 62.3373 389.764 62.0115 391.47 62.022L451.157 62.2891C454.6 62.3022 457.897 63.6803 460.325 66.1212C462.752 68.562 464.113 71.8662 464.108 75.3088L463.474 224.542C463.469 226.251 463.127 227.942 462.467 229.519C461.807 231.095 460.842 232.526 459.628 233.729C458.414 234.933 456.974 235.884 455.391 236.53C453.809 237.176 452.114 237.503 450.405 237.492Z" fill="#455A64" fill-opacity="1.000000" fill-rule="nonzero"/>
	<path id="Vector" d="M451.078 67.4832L439.503 67.4832C439.126 67.4883 438.755 67.5677 438.409 67.7169C438.063 67.8659 437.751 68.0818 437.489 68.3521C437.227 68.6223 437.021 68.9416 436.883 69.2916C436.744 69.6417 436.676 70.0156 436.683 70.3918L436.683 72.4893C436.691 73.2487 436.4 73.9808 435.872 74.527C435.344 75.0732 434.623 75.3896 433.863 75.4078L411.296 75.299C410.917 75.2901 410.544 75.2059 410.198 75.0514C409.852 74.8969 409.54 74.6751 409.28 74.3989C409.021 74.1227 408.819 73.7977 408.686 73.4426C408.553 73.0876 408.492 72.7097 408.506 72.331L408.506 70.2137C408.52 69.8353 408.458 69.458 408.324 69.1036C408.191 68.7491 407.989 68.4246 407.73 68.1487C407.47 67.8728 407.159 67.6509 406.813 67.496C406.468 67.341 406.095 67.256 405.716 67.2457L401.64 67.2457L391.51 67.2457C390.316 67.2392 389.132 67.468 388.026 67.9189C386.921 68.3698 385.915 69.0341 385.066 69.8737C384.217 70.7134 383.542 71.7121 383.079 72.8127C382.616 73.9133 382.374 75.0944 382.368 76.2883L381.745 221.95C381.739 224.362 382.692 226.678 384.393 228.388C386.094 230.098 388.405 231.063 390.817 231.071L450.385 231.348C452.797 231.359 455.114 230.413 456.83 228.718C458.545 227.023 459.519 224.717 459.537 222.306L460.15 76.6445C460.159 75.4464 459.932 74.2582 459.48 73.1484C459.028 72.0386 458.362 71.029 457.519 70.1777C456.676 69.3263 455.673 68.65 454.567 68.1876C453.462 67.7252 452.276 67.4858 451.078 67.4832Z" fill="#FFFFFF" fill-opacity="1.000000" fill-rule="nonzero"/>
	<path id="Vector" d="M391.153 166.596L450.098 166.596L450.098 170.543L391.153 170.543L391.153 166.596Z" fill="#455A64" fill-opacity="1.000000" fill-rule="evenodd"/>
	<path id="Vector" d="M448.001 182.119C448.001 182.257 435.417 182.376 419.904 182.376C404.391 182.376 391.796 182.257 391.796 182.119C391.796 181.98 404.381 181.861 419.904 181.861C435.427 181.861 448.001 181.98 448.001 182.119Z" fill="#455A64" fill-opacity="1.000000" fill-rule="nonzero"/>
	<path id="Vector" d="M448.001 88.6156C448.001 88.764 435.417 88.8729 419.904 88.8729C404.391 88.8729 391.796 88.764 391.796 88.6156C391.796 88.4672 404.381 88.3584 419.904 88.3584C435.427 88.3584 448.001 88.4474 448.001 88.6156Z" fill="#455A64" fill-opacity="1.000000" fill-rule="nonzero"/>
	<path id="Vector" d="M448.001 189.301C448.001 189.44 435.417 189.558 419.904 189.558C404.391 189.558 391.796 189.44 391.796 189.301C391.796 189.163 404.381 189.044 419.904 189.044C435.427 189.044 448.001 189.153 448.001 189.301Z" fill="#455A64" fill-opacity="1.000000" fill-rule="nonzero"/>
	<path id="Vector" d="M448.001 196.454C448.001 196.593 435.417 196.711 419.904 196.711C404.391 196.711 391.796 196.593 391.796 196.454C391.796 196.316 404.381 196.197 419.904 196.197C435.427 196.197 448.001 196.335 448.001 196.454Z" fill="#455A64" fill-opacity="1.000000" fill-rule="nonzero"/>
	<path id="Vector" d="M448.001 203.657C448.001 203.795 435.417 203.914 419.904 203.914C404.391 203.914 391.796 203.795 391.796 203.657C391.796 203.518 404.381 203.399 419.904 203.399C435.427 203.399 448.001 203.508 448.001 203.657Z" fill="#455A64" fill-opacity="1.000000" fill-rule="nonzero"/>
	<path id="Vector" d="M448.001 210.829C448.001 210.978 435.417 211.087 419.904 211.087C404.391 211.087 391.796 210.978 391.796 210.829C391.796 210.681 404.381 210.572 419.904 210.572C435.427 210.572 448.001 210.691 448.001 210.829Z" fill="#455A64" fill-opacity="1.000000" fill-rule="nonzero"/>
	<path id="Vector" d="M448.802 218.972C448.802 219.11 436.218 219.229 420.705 219.229C405.192 219.229 392.598 219.11 392.598 218.972C392.598 218.833 405.182 218.714 420.705 218.714C436.228 218.714 448.802 218.823 448.802 218.972Z" fill="#455A64" fill-opacity="1.000000" fill-rule="nonzero"/>
	<path id="Vector" d="M391.796 96.7777L450.89 96.7777L450.89 153.952L391.796 153.952L391.796 96.7777Z" fill="#E0E0E0" fill-opacity="1.000000" fill-rule="evenodd"/>
	<path id="Vector" d="M396.377 149.055L412.731 119.632L426.097 138.439L434.22 128.447L446.309 149.055L396.377 149.055Z" fill="#EE4248" fill-opacity="1.000000" fill-rule="nonzero"/>
	<path id="Vector" d="M431.796 113.913C431.796 114.755 431.546 115.577 431.079 116.277C430.611 116.976 429.947 117.521 429.169 117.843C428.392 118.165 427.537 118.25 426.711 118.086C425.886 117.921 425.128 117.516 424.533 116.921C423.938 116.326 423.533 115.568 423.369 114.743C423.205 113.918 423.289 113.062 423.611 112.285C423.933 111.508 424.478 110.843 425.178 110.376C425.877 109.908 426.7 109.659 427.541 109.659C428.669 109.662 429.749 110.111 430.547 110.908C431.344 111.705 431.793 112.786 431.796 113.913Z" fill="#EE4248" fill-opacity="1.000000" fill-rule="nonzero"/>
	<path id="Vector" d="M446.309 149.213C446.309 149.213 446.309 149.134 446.309 148.975C446.309 148.817 446.309 148.59 446.309 148.313C446.309 147.699 446.309 146.848 446.309 145.74C446.309 143.475 446.309 140.19 446.24 136.025C446.24 127.675 446.171 115.783 446.121 101.507L446.359 101.744L396.436 101.744C396.367 101.804 396.961 101.21 396.713 101.467L396.713 114.329C396.713 118.533 396.713 122.649 396.713 126.646C396.713 134.66 396.713 142.228 396.713 149.193L396.466 148.946L432.567 149.074L442.758 149.134L445.458 149.134L446.151 149.134L446.398 149.134L446.181 149.134L445.508 149.134L442.856 149.134L432.726 149.193L396.466 149.322L396.219 149.322L396.219 149.074C396.219 142.149 396.219 134.541 396.219 126.527C396.219 122.57 396.219 118.415 396.219 114.21L396.219 101.348C395.961 101.596 396.555 100.992 396.506 101.062L446.428 101.062L446.527 101.062L446.527 101.477C446.468 115.823 446.428 127.764 446.398 136.154C446.398 140.289 446.398 143.554 446.339 145.81C446.339 146.898 446.339 147.739 446.339 148.332C446.339 148.6 446.339 148.807 446.339 148.975C446.34 149.056 446.33 149.136 446.309 149.213Z" fill="#455A64" fill-opacity="1.000000" fill-rule="nonzero"/>
	<path id="Vector" d="M140.265 143.227L140.265 11.4269C140.265 5.11597 145.381 0 151.692 0L350.788 0C357.099 0 362.215 5.11597 362.215 11.4269L362.215 143.227C362.215 149.538 357.099 154.654 350.788 154.654L151.692 154.654C145.381 154.654 140.265 149.538 140.265 143.227Z" fill="#455A64" fill-opacity="1.000000" fill-rule="evenodd"/>
	<path id="Vector" d="M155.442 149.777L155.442 4.87744L340.796 4.87744L340.796 149.777L155.442 149.777Z" fill="#FFFFFF" fill-opacity="1.000000" fill-rule="evenodd"/>
	<path id="Vector" d="M351.055 71.3911C352.229 71.3911 353.377 71.7393 354.353 72.3915C355.329 73.0438 356.09 73.9709 356.539 75.0555C356.989 76.1402 357.106 77.3337 356.877 78.4852C356.648 79.6367 356.083 80.6945 355.253 81.5246C354.422 82.3548 353.365 82.9202 352.213 83.1492C351.062 83.3782 349.868 83.2607 348.784 82.8114C347.699 82.3621 346.772 81.6013 346.12 80.6251C345.467 79.6489 345.119 78.5012 345.119 77.3272C345.119 75.7528 345.745 74.243 346.858 73.1298C347.971 72.0165 349.481 71.3911 351.055 71.3911Z" fill="#263238" fill-opacity="1.000000" fill-rule="nonzero"/>
	<path id="Vector" d="M146.657 99.4093L146.657 55.245C146.657 54.5784 147.197 54.038 147.864 54.038L147.903 54.038C148.57 54.038 149.11 54.5784 149.11 55.245L149.11 99.4093C149.11 100.076 148.57 100.616 147.903 100.616L147.864 100.616C147.197 100.616 146.657 100.076 146.657 99.4093Z" fill="#263238" fill-opacity="1.000000" fill-rule="evenodd"/>
	<path id="Vector" d="M239.991 15.7603L298.936 15.7603L298.936 19.7078L239.991 19.7078L239.991 15.7603Z" fill="#455A64" fill-opacity="1.000000" fill-rule="evenodd"/>
	<path id="Vector" d="M163.208 83.5601L222.153 83.5601L222.153 87.5076L163.208 87.5076L163.208 83.5601Z" fill="#455A64" fill-opacity="1.000000" fill-rule="evenodd"/>
	<path id="Vector" d="M313.292 30.4421C313.292 30.5906 296.888 30.6994 276.686 30.6994C256.484 30.6994 240.031 30.5906 240.031 30.4421C240.031 30.2938 256.434 30.1849 276.686 30.1849C296.938 30.1849 313.292 30.3036 313.292 30.4421Z" fill="#455A64" fill-opacity="1.000000" fill-rule="nonzero"/>
	<path id="Vector" d="M313.292 39.0593C313.292 39.1979 296.888 39.3166 276.686 39.3166C256.484 39.3166 240.031 39.1979 240.031 39.0593C240.031 38.9208 256.434 38.8021 276.686 38.8021C296.938 38.8021 313.292 38.9109 313.292 39.0593Z" fill="#455A64" fill-opacity="1.000000" fill-rule="nonzero"/>
	<path id="Vector" d="M313.292 47.6666C313.292 47.8052 296.888 47.9239 276.686 47.9239C256.484 47.9239 240.031 47.8052 240.031 47.6666C240.031 47.5281 256.434 47.4094 276.686 47.4094C296.938 47.4094 313.292 47.5281 313.292 47.6666Z" fill="#455A64" fill-opacity="1.000000" fill-rule="nonzero"/>
	<path id="Vector" d="M313.292 56.2739C313.292 56.4223 296.888 56.5311 276.686 56.5311C256.484 56.5311 240.031 56.4223 240.031 56.2739C240.031 56.1255 256.434 56.0167 276.686 56.0167C296.938 56.0167 313.292 56.1354 313.292 56.2739Z" fill="#455A64" fill-opacity="1.000000" fill-rule="nonzero"/>
	<path id="Vector" d="M313.292 64.8713C313.292 65.0098 296.888 65.1285 276.686 65.1285C256.484 65.1285 240.031 65.0098 240.031 64.8713C240.031 64.7328 256.434 64.6141 276.686 64.6141C296.938 64.6141 313.292 64.7427 313.292 64.8713Z" fill="#455A64" fill-opacity="1.000000" fill-rule="nonzero"/>
	<path id="Vector" d="M297.215 73.4984C297.215 73.637 284.403 73.7557 268.603 73.7557C252.803 73.7557 239.991 73.637 239.991 73.4984C239.991 73.3599 252.793 73.2412 268.603 73.2412C284.413 73.2412 297.215 73.3599 297.215 73.4984Z" fill="#455A64" fill-opacity="1.000000" fill-rule="nonzero"/>
	<path id="Vector" d="M260.016 99.0828C260.016 99.2214 238.488 99.3401 211.934 99.3401C185.38 99.3401 163.851 99.2214 163.851 99.0828C163.851 98.9443 185.38 98.8256 211.934 98.8256C238.488 98.8256 260.016 98.9344 260.016 99.0828Z" fill="#455A64" fill-opacity="1.000000" fill-rule="nonzero"/>
	<path id="Vector" d="M260.016 106.256C260.016 106.404 238.488 106.513 211.934 106.513C185.38 106.513 163.851 106.404 163.851 106.256C163.851 106.107 185.38 105.998 211.934 105.998C238.488 105.998 260.016 106.117 260.016 106.256Z" fill="#455A64" fill-opacity="1.000000" fill-rule="nonzero"/>
	<path id="Vector" d="M260.016 113.438C260.016 113.577 238.488 113.695 211.934 113.695C185.38 113.695 163.851 113.577 163.851 113.438C163.851 113.3 185.38 113.181 211.934 113.181C238.488 113.181 260.016 113.29 260.016 113.438Z" fill="#455A64" fill-opacity="1.000000" fill-rule="nonzero"/>
	<path id="Vector" d="M260.016 120.611C260.016 120.759 238.488 120.868 211.934 120.868C185.38 120.868 163.851 120.759 163.851 120.611C163.851 120.463 185.38 120.354 211.934 120.354C238.488 120.354 260.016 120.472 260.016 120.611Z" fill="#455A64" fill-opacity="1.000000" fill-rule="nonzero"/>
	<path id="Vector" d="M260.016 127.794C260.016 127.932 238.488 128.051 211.934 128.051C185.38 128.051 163.851 127.932 163.851 127.794C163.851 127.655 185.38 127.536 211.934 127.536C238.488 127.536 260.016 127.655 260.016 127.794Z" fill="#455A64" fill-opacity="1.000000" fill-rule="nonzero"/>
	<path id="Vector" d="M163.851 13.7321L222.945 13.7321L222.945 70.9063L163.851 70.9063L163.851 13.7321Z" fill="#EE4248" fill-opacity="1.000000" fill-rule="evenodd"/>
	<path id="Vector" d="M168.432 66.0189L184.786 36.5958L198.152 55.3934L206.274 45.4109L218.364 66.0189L168.432 66.0189Z" fill="#E0E0E0" fill-opacity="1.000000" fill-rule="nonzero"/>
	<path id="Vector" d="M203.851 30.8676C203.853 31.7094 203.605 32.5329 203.138 33.2338C202.672 33.9347 202.008 34.4814 201.231 34.805C200.454 35.1285 199.598 35.2142 198.773 35.0511C197.947 34.8881 197.188 34.4837 196.592 33.8892C195.996 33.2946 195.59 32.5366 195.425 31.7111C195.26 30.8856 195.343 30.0297 195.665 29.2518C195.987 28.4738 196.532 27.8088 197.232 27.3409C197.932 26.873 198.755 26.6233 199.596 26.6233C200.723 26.6233 201.804 27.0701 202.601 27.8658C203.399 28.6615 203.848 29.741 203.851 30.8676Z" fill="#E0E0E0" fill-opacity="1.000000" fill-rule="nonzero"/>
	<path id="Vector" d="M218.364 66.1773C218.364 66.1773 218.364 66.0883 218.364 65.9398C218.364 65.7914 218.364 65.554 218.364 65.277C218.364 64.6636 218.364 63.8029 218.364 62.7047C218.364 60.4292 218.364 57.1545 218.305 52.9893C218.305 44.6392 218.236 32.7473 218.186 18.4711L218.424 18.7086L168.501 18.7086C168.432 18.7679 169.026 18.1842 168.778 18.4414L168.778 24.9019C168.778 27.0388 168.778 29.1659 168.778 31.2633L168.778 43.5807C168.778 51.5944 168.778 59.1628 168.778 66.1278L168.531 65.8805L204.632 65.9992L214.813 66.0685L217.513 66.0685L218.216 66.0685L218.463 66.0685L218.246 66.0685L217.573 66.0685L214.921 66.0685L204.79 66.1377L168.531 66.2564L168.284 66.2564L168.284 66.0091C168.284 59.0837 168.284 51.4756 168.284 43.4619C168.284 39.4584 168.284 35.3526 168.284 31.1446L168.284 18.2831C168.026 18.5305 168.62 17.9269 168.571 17.9863L218.493 17.9863L218.74 17.9863L218.74 18.2336C218.691 32.5693 218.651 44.5205 218.622 52.9102C218.622 57.0457 218.572 60.3105 218.562 62.5662C218.562 63.6445 218.562 64.5449 218.562 65.089C218.562 65.3561 218.562 65.5639 218.562 65.7321C218.555 65.9002 218.484 66.0594 218.364 66.1773Z" fill="#455A64" fill-opacity="1.000000" fill-rule="nonzero"/>
	<path id="Vector" d="M273.283 91.1384L315.102 91.1384L315.102 131.603L273.283 131.603L273.283 91.1384Z" fill="#EE4248" fill-opacity="1.000000" fill-rule="evenodd"/>
	<path id="Vector" d="M276.528 128.14L288.093 107.324L297.561 120.631L303.309 113.557L311.857 128.14L276.528 128.14Z" fill="#E0E0E0" fill-opacity="1.000000" fill-rule="nonzero"/>
	<path id="Vector" d="M301.588 103.268C301.588 103.855 301.414 104.429 301.088 104.917C300.762 105.405 300.298 105.785 299.756 106.01C299.213 106.234 298.617 106.293 298.041 106.179C297.465 106.064 296.936 105.782 296.521 105.367C296.106 104.951 295.823 104.423 295.709 103.847C295.594 103.271 295.653 102.674 295.878 102.132C296.102 101.59 296.483 101.126 296.971 100.8C297.459 100.474 298.033 100.3 298.62 100.3C299.407 100.3 300.162 100.612 300.719 101.169C301.275 101.726 301.588 102.481 301.588 103.268Z" fill="#E0E0E0" fill-opacity="1.000000" fill-rule="nonzero"/>
	<path id="Vector" d="M311.857 128.249C311.857 128.249 311.857 128.189 311.857 128.09C311.857 127.991 311.857 127.813 311.857 127.616C311.857 127.18 311.857 126.626 311.857 125.795C311.857 124.192 311.857 121.838 311.857 118.87C311.857 112.934 311.808 104.544 311.768 94.4428L311.936 94.611L276.607 94.611C276.557 94.611 276.983 94.235 276.805 94.423L276.805 103.505C276.805 106.473 276.805 109.379 276.805 112.221C276.805 117.89 276.805 123.243 276.805 128.17L276.637 128.001L302.083 128.189L309.285 128.189L311.204 128.189L311.867 128.189C311.867 128.189 311.818 128.189 311.719 128.189L311.244 128.189L309.364 128.189L302.191 128.239L276.538 128.328L276.36 128.328L276.36 128.15C276.36 123.203 276.36 117.87 276.36 112.202L276.36 94.5516C276.182 94.7198 276.607 94.2944 276.567 94.3439L311.897 94.3439L312.075 94.3439L312.075 94.5121C312.075 104.663 312.006 113.112 311.986 119.048C311.986 122.016 311.986 124.291 311.936 125.884C311.936 126.656 311.936 127.249 311.936 127.675C311.936 127.863 311.936 128.011 311.936 128.13C311.936 128.249 311.867 128.259 311.857 128.249Z" fill="#455A64" fill-opacity="1.000000" fill-rule="nonzero"/>
	<path id="Vector" d="M63.7891 170.286L345.208 170.286C353.169 170.286 359.623 176.74 359.623 184.701L359.623 361.032C359.623 368.993 353.169 375.446 345.208 375.446L63.7891 375.446C55.828 375.446 49.3743 368.993 49.3743 361.032L49.3743 184.701C49.3743 176.74 55.828 170.286 63.7891 170.286Z" fill="#263238" fill-opacity="1.000000" fill-rule="evenodd"/>
	<path id="Vector" d="M36.4041 360.28L372.534 360.28L372.534 360.626C372.534 365.297 370.678 369.776 367.376 373.078C364.073 376.381 359.594 378.236 354.924 378.236L54.0144 378.236C49.3438 378.236 44.8646 376.381 41.562 373.078C38.2594 369.776 36.4041 365.297 36.4041 360.626L36.4041 360.28Z" fill="#263238" fill-opacity="1.000000" fill-rule="nonzero"/>
	<path id="Vector" d="M57.7046 178.438L350.432 178.438L350.432 351.692L57.7046 351.692L57.7046 178.438Z" fill="#E0E0E0" fill-opacity="1.000000" fill-rule="evenodd"/>
	<path id="Vector" d="M173.913 360.28L178.088 366.918L236.776 366.918L240.654 360.28L173.913 360.28Z" fill="#455A64" fill-opacity="1.000000" fill-rule="nonzero"/>
	<path id="Vector" d="M67.4695 189.984L336.977 189.984L336.977 351.633L67.4695 351.633L67.4695 189.984Z" fill="#FAFAFA" fill-opacity="1.000000" fill-rule="evenodd"/>
	<path id="Vector" d="M78.9755 197.948C78.9775 198.397 78.8463 198.836 78.5985 199.209C78.3508 199.583 77.9976 199.875 77.5838 200.048C77.17 200.221 76.7141 200.268 76.274 200.181C75.8339 200.095 75.4293 199.88 75.1114 199.563C74.7936 199.247 74.5768 198.843 74.4886 198.404C74.4004 197.964 74.4447 197.508 74.6158 197.093C74.787 196.679 75.0774 196.324 75.4502 196.075C75.823 195.826 76.2614 195.692 76.7099 195.692C77.3091 195.692 77.8839 195.93 78.3084 196.352C78.733 196.775 78.9729 197.349 78.9755 197.948Z" fill="#455A64" fill-opacity="1.000000" fill-rule="nonzero"/>
	<path id="Vector" d="M88.1962 197.948C88.1982 198.397 88.0667 198.836 87.8185 199.21C87.5703 199.585 87.2166 199.876 86.8022 200.049C86.3878 200.222 85.9315 200.268 85.4911 200.18C85.0507 200.093 84.6461 199.877 84.3286 199.56C84.0112 199.242 83.7952 198.838 83.7081 198.398C83.621 197.957 83.6667 197.501 83.8394 197.086C84.0121 196.672 84.304 196.318 84.6781 196.07C85.0522 195.822 85.4916 195.69 85.9405 195.692C86.5388 195.692 87.1125 195.93 87.5355 196.353C87.9585 196.776 88.1962 197.35 88.1962 197.948Z" fill="#455A64" fill-opacity="1.000000" fill-rule="nonzero"/>
	<path id="Vector" d="M97.4268 197.948C97.4288 198.397 97.2976 198.836 97.0498 199.209C96.802 199.583 96.4489 199.875 96.0351 200.048C95.6213 200.221 95.1654 200.268 94.7253 200.181C94.2852 200.095 93.8806 199.88 93.5627 199.563C93.2449 199.247 93.0281 198.843 92.9399 198.404C92.8517 197.964 92.896 197.508 93.0671 197.093C93.2383 196.679 93.5287 196.324 93.9015 196.075C94.2743 195.825 94.7127 195.692 95.1612 195.692C95.4583 195.691 95.7526 195.748 96.0275 195.861C96.3023 195.974 96.5521 196.14 96.7626 196.349C96.9731 196.559 97.1402 196.808 97.2542 197.083C97.3681 197.357 97.4268 197.651 97.4268 197.948Z" fill="#455A64" fill-opacity="1.000000" fill-rule="nonzero"/>
	<path id="Vector" d="M336.977 207.842C336.977 207.99 276.627 208.099 202.228 208.099C127.829 208.099 67.4695 207.99 67.4695 207.842C67.4695 207.693 127.82 207.584 202.228 207.584C276.637 207.584 336.977 207.703 336.977 207.842Z" fill="#455A64" fill-opacity="1.000000" fill-rule="nonzero"/>
	<path id="Vector" d="M49.3743 360.418L359.623 360.418L359.623 361.408L49.3743 361.408L49.3743 360.418Z" fill="#455A64" fill-opacity="1.000000" fill-rule="evenodd"/>
	<path id="Vector" d="M89.5615 286.386L148.507 286.386L148.507 290.333L89.5615 290.333L89.5615 286.386Z" fill="#455A64" fill-opacity="1.000000" fill-rule="evenodd"/>
	<path id="Vector" d="M165.701 231.635L224.647 231.635L224.647 235.583L165.701 235.583L165.701 231.635Z" fill="#455A64" fill-opacity="1.000000" fill-rule="evenodd"/>
	<path id="Vector" d="M312.322 246.327C312.322 246.466 279.496 246.584 239.012 246.584C198.528 246.584 165.701 246.466 165.701 246.327C165.701 246.188 198.518 246.06 239.012 246.06C279.506 246.06 312.322 246.179 312.322 246.327Z" fill="#455A64" fill-opacity="1.000000" fill-rule="nonzero"/>
	<path id="Vector" d="M312.322 254.934C312.322 255.073 279.496 255.192 239.012 255.192C198.528 255.192 165.701 255.073 165.701 254.934C165.701 254.796 198.518 254.677 239.012 254.677C279.506 254.677 312.322 254.825 312.322 254.934Z" fill="#455A64" fill-opacity="1.000000" fill-rule="nonzero"/>
	<path id="Vector" d="M312.322 263.542C312.322 263.69 279.496 263.799 239.012 263.799C198.528 263.799 165.701 263.69 165.701 263.542C165.701 263.393 198.518 263.284 239.012 263.284C279.506 263.284 312.322 263.403 312.322 263.542Z" fill="#455A64" fill-opacity="1.000000" fill-rule="nonzero"/>
	<path id="Vector" d="M312.322 272.159C312.322 272.297 279.496 272.416 239.012 272.416C198.528 272.416 165.701 272.297 165.701 272.159C165.701 272.02 198.518 271.892 239.012 271.892C279.506 271.892 312.322 272.01 312.322 272.159Z" fill="#455A64" fill-opacity="1.000000" fill-rule="nonzero"/>
	<path id="Vector" d="M312.322 280.766C312.322 280.905 279.496 281.023 239.012 281.023C198.528 281.023 165.701 280.905 165.701 280.766C165.701 280.628 198.518 280.509 239.012 280.509C279.506 280.509 312.322 280.618 312.322 280.766Z" fill="#455A64" fill-opacity="1.000000" fill-rule="nonzero"/>
	<path id="Vector" d="M222.935 289.373C222.935 289.512 210.123 289.631 194.323 289.631C178.523 289.631 165.701 289.512 165.701 289.373C165.701 289.235 178.563 289.116 194.323 289.116C210.083 289.116 222.935 289.235 222.935 289.373Z" fill="#455A64" fill-opacity="1.000000" fill-rule="nonzero"/>
	<path id="Vector" d="M311.244 306.083C311.244 306.232 289.666 306.341 263.063 306.341C236.459 306.341 214.882 306.232 214.882 306.083C214.882 305.935 236.449 305.826 263.063 305.826C289.676 305.826 311.244 305.945 311.244 306.083Z" fill="#455A64" fill-opacity="1.000000" fill-rule="nonzero"/>
	<path id="Vector" d="M311.244 315.225C311.244 315.363 289.666 315.482 263.063 315.482C236.459 315.482 214.882 315.363 214.882 315.225C214.882 315.086 236.449 314.968 263.063 314.968C289.676 314.968 311.244 315.086 311.244 315.225Z" fill="#455A64" fill-opacity="1.000000" fill-rule="nonzero"/>
	<path id="Vector" d="M311.244 324.367C311.244 324.505 289.666 324.624 263.063 324.624C236.459 324.624 214.882 324.505 214.882 324.367C214.882 324.228 236.449 324.109 263.063 324.109C289.676 324.109 311.244 324.218 311.244 324.367Z" fill="#455A64" fill-opacity="1.000000" fill-rule="nonzero"/>
	<path id="Vector" d="M311.244 333.508C311.244 333.647 289.666 333.765 263.063 333.765C236.459 333.765 214.882 333.647 214.882 333.508C214.882 333.37 236.449 333.251 263.063 333.251C289.676 333.251 311.244 333.36 311.244 333.508Z" fill="#455A64" fill-opacity="1.000000" fill-rule="nonzero"/>
	<path id="Vector" d="M148.655 305.213C148.655 305.351 135.794 305.47 119.964 305.47C104.135 305.47 91.2731 305.351 91.2731 305.213C91.2731 305.074 104.135 304.956 119.964 304.956C135.794 304.956 148.655 305.064 148.655 305.213Z" fill="#455A64" fill-opacity="1.000000" fill-rule="nonzero"/>
	<path id="Vector" d="M148.655 312.385C148.655 312.534 135.794 312.643 119.964 312.643C104.135 312.643 91.2731 312.534 91.2731 312.385C91.2731 312.237 104.135 312.128 119.964 312.128C135.794 312.128 148.655 312.207 148.655 312.385Z" fill="#455A64" fill-opacity="1.000000" fill-rule="nonzero"/>
	<path id="Vector" d="M148.655 319.568C148.655 319.707 135.794 319.825 119.964 319.825C104.135 319.825 91.2731 319.707 91.2731 319.568C91.2731 319.43 104.135 319.311 119.964 319.311C135.794 319.311 148.655 319.43 148.655 319.568Z" fill="#455A64" fill-opacity="1.000000" fill-rule="nonzero"/>
	<path id="Vector" d="M148.655 326.741C148.655 326.889 135.794 326.998 119.964 326.998C104.135 326.998 91.2731 326.889 91.2731 326.741C91.2731 326.593 104.135 326.484 119.964 326.484C135.794 326.484 148.655 326.602 148.655 326.741Z" fill="#455A64" fill-opacity="1.000000" fill-rule="nonzero"/>
	<path id="Vector" d="M148.655 333.973C148.655 334.112 135.794 334.23 119.964 334.23C104.135 334.23 91.2731 334.112 91.2731 333.973C91.2731 333.835 104.135 333.716 119.964 333.716C135.794 333.716 148.655 333.785 148.655 333.973Z" fill="#455A64" fill-opacity="1.000000" fill-rule="nonzero"/>
	<path id="Vector" d="M89.5615 218.754L148.655 218.754L148.655 275.928L89.5615 275.928L89.5615 218.754Z" fill="#E0E0E0" fill-opacity="1.000000" fill-rule="evenodd"/>
	<path id="Vector" d="M94.1422 271.031L110.496 241.608L123.862 260.415L131.995 250.433L144.074 271.031L94.1422 271.031Z" fill="#EE4248" fill-opacity="1.000000" fill-rule="nonzero"/>
	<path id="Vector" d="M129.561 235.889C129.561 236.731 129.311 237.553 128.844 238.253C128.376 238.953 127.712 239.498 126.935 239.82C126.157 240.142 125.302 240.226 124.477 240.062C123.651 239.898 122.893 239.493 122.298 238.898C121.703 238.303 121.298 237.545 121.134 236.719C120.97 235.894 121.054 235.039 121.376 234.261C121.698 233.484 122.243 232.82 122.943 232.352C123.643 231.885 124.465 231.635 125.307 231.635C126.435 231.635 127.517 232.083 128.315 232.881C129.113 233.679 129.561 234.761 129.561 235.889Z" fill="#EE4248" fill-opacity="1.000000" fill-rule="nonzero"/>
	<path id="Vector" d="M144.074 271.189C144.07 271.113 144.07 271.037 144.074 270.962C144.074 270.784 144.074 270.566 144.074 270.289C144.074 269.685 144.074 268.825 144.074 267.717C144.074 265.451 144.074 262.176 144.005 258.011C144.005 249.661 143.936 237.769 143.886 223.483L144.124 223.73L94.2015 223.73C94.1323 223.79 94.7259 223.196 94.4786 223.453L94.4786 236.315C94.4786 240.51 94.4786 244.625 94.4786 248.632C94.4786 256.636 94.4786 264.204 94.4786 271.169L94.2312 270.932L130.332 271.051L140.523 271.12L143.224 271.12L144.163 271.12C144.163 271.12 144.094 271.12 143.946 271.12L143.273 271.12L140.622 271.12L130.491 271.189L94.2312 271.308L93.9938 271.308L93.9938 271.061C93.9938 264.135 93.9938 256.527 93.9938 248.523C93.9938 244.516 93.9938 240.401 93.9938 236.206L93.9938 223.344L94.2807 223.058L144.203 223.058L144.45 223.058L144.45 223.295C144.45 237.641 144.351 249.582 144.322 257.972C144.322 262.117 144.322 265.372 144.262 267.628C144.262 268.716 144.262 269.557 144.262 270.16C144.262 270.427 144.262 270.635 144.262 270.793C144.262 270.952 144.084 271.199 144.074 271.189Z" fill="#455A64" fill-opacity="1.000000" fill-rule="nonzero"/>
	<path id="Vector" d="M165.662 301.72L207.481 301.72L207.481 342.185L165.662 342.185L165.662 301.72Z" fill="#E0E0E0" fill-opacity="1.000000" fill-rule="evenodd"/>
	<path id="Vector" d="M168.907 338.722L180.472 317.906L189.94 331.213L195.689 324.139L204.246 338.722L168.907 338.722Z" fill="#EE4248" fill-opacity="1.000000" fill-rule="nonzero"/>
	<path id="Vector" d="M193.967 313.85C193.967 314.437 193.793 315.011 193.467 315.499C193.141 315.987 192.677 316.367 192.135 316.592C191.593 316.816 190.996 316.875 190.42 316.761C189.844 316.646 189.315 316.364 188.9 315.948C188.485 315.533 188.203 315.005 188.088 314.429C187.974 313.853 188.032 313.256 188.257 312.714C188.482 312.172 188.862 311.708 189.35 311.382C189.838 311.056 190.412 310.882 190.999 310.882C191.786 310.882 192.541 311.194 193.098 311.751C193.654 312.308 193.967 313.063 193.967 313.85Z" fill="#EE4248" fill-opacity="1.000000" fill-rule="nonzero"/>
	<path id="Vector" d="M204.246 338.841C204.243 338.785 204.243 338.728 204.246 338.672C204.246 338.554 204.246 338.395 204.246 338.198C204.246 337.772 204.246 337.208 204.246 336.377C204.246 334.774 204.246 332.42 204.197 329.501C204.197 323.565 204.197 315.175 204.118 305.074L204.286 305.242L168.947 305.242C168.947 305.242 169.323 304.867 169.144 305.055L169.144 322.863C169.144 328.532 169.144 333.884 169.144 338.821L168.966 338.643L194.521 338.732L201.724 338.781L203.633 338.781L201.753 338.781L194.59 338.781L168.927 338.87L168.759 338.87L168.759 338.702C168.759 333.755 168.759 328.413 168.759 322.744C168.759 319.914 168.759 316.996 168.759 314.028L168.759 304.965C168.58 305.134 168.996 304.708 168.956 304.758L204.296 304.758L204.464 304.758L204.464 304.926C204.464 315.077 204.395 323.526 204.375 329.472C204.375 332.44 204.375 334.705 204.375 336.298C204.375 337.07 204.375 337.663 204.375 338.089C204.375 338.277 204.375 338.425 204.375 338.544C204.352 338.65 204.308 338.751 204.246 338.841Z" fill="#455A64" fill-opacity="1.000000" fill-rule="nonzero"/>
	<path id="Vector" d="M556.69 360.685L546.797 359.508L544.472 378.048L558.946 379.918L559.164 378.78C560.094 373.695 563.507 352.879 562.893 349.328C562.211 345.37 556.69 360.685 556.69 360.685Z" fill="#EE4248" fill-opacity="1.000000" fill-rule="nonzero"/>
	<path id="Vector" d="M562.033 348.002C562.211 348.002 561.528 354.987 560.509 363.545C559.49 372.102 558.531 379.028 558.352 379.008C558.174 378.988 558.867 372.083 559.876 363.465C560.885 354.848 561.855 347.982 562.033 348.002Z" fill="#263238" fill-opacity="1.000000" fill-rule="nonzero"/>
	<path id="Vector" d="M558.748 359.815C558.649 359.953 558.135 359.755 557.66 359.3C557.185 358.845 556.987 358.311 557.126 358.222C557.264 358.133 557.68 358.42 558.115 358.845C558.55 359.271 558.857 359.696 558.748 359.815Z" fill="#263238" fill-opacity="1.000000" fill-rule="nonzero"/>
	<path id="Vector" d="M559.54 358.707C559.46 358.865 558.877 358.707 558.303 358.271C557.729 357.836 557.413 357.282 557.541 357.183C557.67 357.084 558.155 357.351 558.689 357.757C559.223 358.163 559.629 358.548 559.54 358.707Z" fill="#263238" fill-opacity="1.000000" fill-rule="nonzero"/>
	<path id="Vector" d="M558.956 373.408C558.956 373.487 558.709 373.735 558.214 374.091C557.585 374.519 556.999 375.006 556.463 375.545C555.956 376.081 555.589 376.734 555.394 377.445C555.256 377.999 555.295 378.365 555.196 378.385C555.097 378.405 554.919 378.038 554.949 377.395C555.019 376.551 555.367 375.754 555.938 375.13C556.504 374.539 557.175 374.06 557.917 373.715C558.54 373.438 558.906 373.329 558.956 373.408Z" fill="#263238" fill-opacity="1.000000" fill-rule="nonzero"/>
	<path id="Vector" d="M556.898 359.538C557.056 359.468 557.373 359.835 557.492 360.379C557.61 360.923 557.492 361.368 557.314 361.368C557.135 361.368 556.977 360.972 556.868 360.487C556.76 360.003 556.73 359.607 556.898 359.538Z" fill="#263238" fill-opacity="1.000000" fill-rule="nonzero"/>
	<path id="Vector" d="M555.909 359.696C556.077 359.696 556.166 360.21 556.107 360.844C556.047 361.477 555.839 361.952 555.671 361.912C555.503 361.873 555.404 361.368 555.473 360.774C555.543 360.181 555.731 359.696 555.909 359.696Z" fill="#263238" fill-opacity="1.000000" fill-rule="nonzero"/>
	<path id="Vector" d="M550.655 379.522L495.816 373.962L382.101 376.505L412.335 352.128L488.228 348.487L554.583 357.628L550.655 379.522Z" fill="#263238" fill-opacity="1.000000" fill-rule="nonzero"/>
	<path id="Vector" d="M457.964 364.296C457.964 364.445 447.289 364.554 434.12 364.554C420.952 364.554 410.287 364.445 410.287 364.296C410.287 364.148 420.952 364.039 434.12 364.039C447.289 364.039 457.964 364.158 457.964 364.296Z" fill="#455A64" fill-opacity="1.000000" fill-rule="nonzero"/>
	<path id="Vector" d="M452.661 350.188L456.559 374.714L464.038 374.714L458.349 349.921L452.661 350.188Z" fill="#000000" fill-opacity="1.000000" fill-rule="nonzero"/>
	<path id="Vector" d="M481.609 375.041L480.501 365.147L461.911 367.126L463.346 381.61L464.503 381.61C469.668 381.353 490.711 379.948 494.025 378.543C497.765 376.93 481.609 375.041 481.609 375.041Z" fill="#EE4248" fill-opacity="1.000000" fill-rule="nonzero"/>
	<path id="Vector" d="M494.411 377.504C494.411 377.682 487.486 378.602 478.928 379.562C470.37 380.522 463.405 381.155 463.385 380.977C463.366 380.799 470.311 379.889 478.859 378.929C487.407 377.969 494.391 377.366 494.411 377.504Z" fill="#263238" fill-opacity="1.000000" fill-rule="nonzero"/>
	<path id="Vector" d="M482.143 377.029C481.975 376.96 482.054 376.416 482.391 375.852C482.727 375.288 483.192 374.971 483.321 375.08C483.449 375.189 483.251 375.664 482.945 376.178C482.638 376.693 482.321 377.099 482.143 377.029Z" fill="#263238" fill-opacity="1.000000" fill-rule="nonzero"/>
	<path id="Vector" d="M483.419 377.504C483.251 377.504 483.271 376.861 483.568 376.198C483.865 375.535 484.3 375.12 484.448 375.209C484.597 375.298 484.448 375.832 484.152 376.446C483.855 377.059 483.588 377.593 483.419 377.504Z" fill="#263238" fill-opacity="1.000000" fill-rule="nonzero"/>
	<path id="Vector" d="M468.965 380.314C468.906 380.373 468.589 380.146 468.134 379.75C467.575 379.236 466.969 378.776 466.324 378.375C465.685 378.004 464.965 377.796 464.226 377.771C463.662 377.771 463.306 377.88 463.237 377.771C463.168 377.662 463.504 377.425 464.157 377.306C465.007 377.186 465.873 377.361 466.611 377.801C467.313 378.223 467.931 378.774 468.431 379.423C468.847 379.928 469.034 380.255 468.965 380.314Z" fill="#263238" fill-opacity="1.000000" fill-rule="nonzero"/>
	<path id="Vector" d="M482.005 375.159C482.114 375.298 481.827 375.684 481.322 375.931C480.818 376.178 480.333 376.159 480.333 375.99C480.333 375.822 480.639 375.575 481.085 375.357C481.53 375.14 481.906 375.011 482.005 375.159Z" fill="#263238" fill-opacity="1.000000" fill-rule="nonzero"/>
	<path id="Vector" d="M481.609 374.229C481.609 374.408 481.164 374.605 480.541 374.685C479.917 374.764 479.403 374.685 479.393 374.506C479.383 374.328 479.868 374.131 480.461 374.051C481.055 373.972 481.569 374.061 481.609 374.229Z" fill="#263238" fill-opacity="1.000000" fill-rule="nonzero"/>
	<path id="Vector" d="M372.84 261.87L388.67 261.583C388.888 259.752 389.194 252.619 389.194 252.619C389.194 252.619 395.823 251.996 396.308 245.446C396.792 238.897 396.585 223.74 396.585 223.74C392.952 221.907 388.896 221.076 384.835 221.333C380.774 221.59 376.855 222.927 373.483 225.204L372.494 225.897L372.84 261.87Z" fill="#B78876" fill-opacity="1.000000" fill-rule="nonzero"/>
	<path id="Vector" d="M394.398 234.93C394.226 234.746 394.13 234.504 394.13 234.252C394.13 234 394.226 233.758 394.398 233.574C394.534 233.43 394.71 233.33 394.904 233.286C395.097 233.243 395.299 233.259 395.483 233.332C395.668 233.405 395.826 233.532 395.937 233.696C396.049 233.86 396.108 234.054 396.108 234.252C396.108 234.45 396.049 234.644 395.937 234.808C395.826 234.972 395.668 235.099 395.483 235.172C395.299 235.245 395.097 235.261 394.904 235.218C394.71 235.174 394.534 235.074 394.398 234.93Z" fill="#263238" fill-opacity="1.000000" fill-rule="nonzero"/>
	<path id="Vector" d="M396.07 233.525C395.961 233.634 395.348 233.099 394.448 233.04C393.547 232.981 392.855 233.406 392.766 233.287C392.677 233.169 392.835 233.03 393.132 232.832C393.536 232.578 394.011 232.46 394.487 232.496C394.962 232.526 395.413 232.71 395.773 233.02C396.07 233.268 396.139 233.475 396.07 233.525Z" fill="#263238" fill-opacity="1.000000" fill-rule="nonzero"/>
	<path id="Vector" d="M385.623 233.673C385.764 233.841 385.846 234.051 385.856 234.27C385.865 234.489 385.801 234.705 385.674 234.884C385.548 235.063 385.365 235.195 385.155 235.259C384.945 235.323 384.72 235.315 384.515 235.237C384.374 235.183 384.247 235.097 384.144 234.987C384.041 234.877 383.965 234.744 383.921 234.6C383.877 234.455 383.867 234.303 383.891 234.154C383.915 234.005 383.973 233.863 384.06 233.74C384.147 233.617 384.262 233.515 384.394 233.443C384.527 233.371 384.674 233.33 384.825 233.324C384.976 233.317 385.126 233.345 385.265 233.406C385.403 233.467 385.525 233.558 385.623 233.673Z" fill="#263238" fill-opacity="1.000000" fill-rule="nonzero"/>
	<path id="Vector" d="M386.177 233.713C386.068 233.822 385.455 233.287 384.544 233.228C383.634 233.169 382.961 233.594 382.862 233.475C382.764 233.357 382.932 233.218 383.238 233.02C383.642 232.766 384.116 232.648 384.592 232.684C385.067 232.719 385.519 232.907 385.88 233.218C386.177 233.456 386.266 233.673 386.177 233.713Z" fill="#263238" fill-opacity="1.000000" fill-rule="nonzero"/>
	<path id="Vector" d="M389.382 241.4C389.858 241.244 390.356 241.17 390.856 241.182C391.094 241.182 391.292 241.123 391.311 241.004C391.335 240.766 391.291 240.526 391.183 240.312L390.579 238.432C389.999 236.829 389.581 235.172 389.333 233.485C390.076 235.014 390.659 236.615 391.074 238.264C391.272 238.917 391.45 239.54 391.638 240.154C391.773 240.466 391.797 240.815 391.707 241.143C391.666 241.231 391.606 241.309 391.531 241.371C391.455 241.433 391.367 241.477 391.272 241.499C391.137 241.517 391.001 241.517 390.866 241.499C390.37 241.548 389.868 241.515 389.382 241.4Z" fill="#263238" fill-opacity="1.000000" fill-rule="nonzero"/>
	<path id="Vector" d="M386.385 242.221C385.474 241.598 388.888 243.755 390.738 243.774C390.4 244.231 389.919 244.56 389.372 244.709C388.824 244.858 388.242 244.818 387.72 244.596C385.801 243.755 386.385 242.221 386.385 242.221Z" fill="#FFFFFF" fill-opacity="1.000000" fill-rule="nonzero"/>
	<path id="Vector" d="M389.234 252.52C386.198 252.387 383.271 251.354 380.824 249.552C380.824 249.552 382.556 254.4 389.145 254.212L389.234 252.52Z" fill="#A36957" fill-opacity="1.000000" fill-rule="nonzero"/>
	<path id="Vector" d="M397.06 221.376C397.436 221.363 397.804 221.265 398.137 221.088C398.469 220.911 398.756 220.66 398.976 220.354C399.196 220.049 399.344 219.697 399.407 219.326C399.47 218.955 399.447 218.574 399.34 218.213C399.233 217.852 399.044 217.521 398.789 217.244C398.534 216.967 398.219 216.753 397.868 216.617C397.517 216.48 397.139 216.427 396.764 216.459C396.389 216.492 396.027 216.61 395.704 216.805C396.49 216.158 397.131 215.352 397.584 214.44C397.802 213.982 397.874 213.468 397.791 212.968C397.708 212.467 397.473 212.004 397.119 211.641C396.706 211.357 396.224 211.191 395.724 211.159C395.224 211.128 394.725 211.233 394.28 211.463C392.885 212.066 391.786 213.243 390.322 213.738C388.858 214.233 387.295 213.985 385.761 214.055C384.052 214.087 382.397 214.658 381.032 215.687C380.361 216.207 379.82 216.876 379.454 217.643C379.088 218.409 378.907 219.25 378.925 220.099C376.778 219.842 374.404 219.813 372.712 221.148C372.031 221.754 371.493 222.503 371.136 223.341C370.778 224.179 370.61 225.086 370.644 225.996C370.809 227.814 371.243 229.598 371.93 231.289C372.05 231.785 372.273 232.25 372.583 232.654L373.385 237.364L376.303 237.304L376.115 227.51C376.115 227.51 375.818 223.374 379.38 223.74C382.942 224.106 387.76 228.113 394.675 227.094C395.806 227.035 396.909 226.72 397.901 226.174C398.381 225.872 398.772 225.446 399.033 224.942C399.294 224.437 399.415 223.872 399.385 223.305C399.325 222.744 399.048 222.229 398.614 221.868C398.18 221.508 397.622 221.331 397.06 221.376Z" fill="#263238" fill-opacity="1.000000" fill-rule="nonzero"/>
	<path id="Vector" d="M373.751 231.714C373.602 231.665 368.873 231.052 369.318 236.661C369.764 242.271 375.254 239.946 375.254 239.787C375.254 239.629 373.751 231.714 373.751 231.714Z" fill="#B78876" fill-opacity="1.000000" fill-rule="nonzero"/>
	<path id="Vector" d="M373.394 237.937C373.394 237.937 373.296 238.007 373.137 238.096C372.915 238.213 372.657 238.241 372.415 238.175C372.037 237.974 371.719 237.677 371.493 237.314C371.268 236.951 371.142 236.535 371.129 236.107C371.073 235.63 371.127 235.146 371.287 234.692C371.325 234.513 371.406 234.345 371.523 234.203C371.64 234.062 371.79 233.951 371.96 233.881C372.07 233.843 372.19 233.845 372.298 233.887C372.407 233.928 372.497 234.007 372.554 234.109C372.643 234.257 372.613 234.366 372.643 234.376C372.672 234.386 372.761 234.277 372.692 234.049C372.654 233.91 372.566 233.791 372.445 233.713C372.365 233.661 372.276 233.625 372.183 233.608C372.089 233.591 371.993 233.593 371.901 233.614C371.664 233.678 371.448 233.803 371.274 233.977C371.1 234.15 370.975 234.366 370.911 234.603C370.709 235.105 370.637 235.649 370.703 236.186C370.714 236.684 370.872 237.168 371.157 237.577C371.442 237.985 371.842 238.3 372.306 238.482C372.46 238.514 372.619 238.512 372.771 238.474C372.924 238.436 373.066 238.364 373.187 238.264C373.394 238.066 373.414 237.947 373.394 237.937Z" fill="#A36957" fill-opacity="1.000000" fill-rule="nonzero"/>
	<path id="Vector" d="M359.999 359.696C362.967 364.118 380.963 391.207 402.452 371.509C429.827 346.439 451.474 324.475 451.474 324.475L459.606 374.091L485.091 372.706C485.091 372.706 475.198 298.832 468.886 292.114C461.872 284.615 455.421 285.248 400.334 328.72L359.999 359.696Z" fill="#455A64" fill-opacity="1.000000" fill-rule="nonzero"/>
	<path id="Vector" d="M451.157 275.562L474.961 258.189L476.128 260.059L452.483 277.64L451.157 275.562Z" fill="#263238" fill-opacity="1.000000" fill-rule="nonzero"/>
	<path id="Vector" d="M457.044 275.028C457.044 275.028 460.229 266.717 461.001 264.946C461.773 263.176 462.93 260.089 463.385 260C463.84 259.911 465.502 260.198 463.385 265.481C461.268 270.764 465.958 267.539 465.958 267.539L470.538 264.254C470.538 264.254 474.159 275.077 472.101 278.342C470.484 280.78 468.667 283.08 466.67 285.218L457.044 275.028Z" fill="#B78876" fill-opacity="1.000000" fill-rule="nonzero"/>
	<path id="Vector" d="M457.311 274.058C456.836 272.98 426.562 299.712 420.537 300.622L402.887 277.64C402.887 277.64 399.226 271.822 391.361 261.87C386.276 255.449 372.267 256.784 368.606 264.61C362.353 277.907 362.274 292.688 358.94 321.448L357.486 340.898C357.172 345.038 357.235 349.197 357.674 353.325C358.208 358.143 359.296 363.218 361.532 362.496L401.907 329.125L403.203 313.969C411.692 322.576 414.334 324.376 418.746 323.684C429.856 321.962 468.748 286.989 468.748 286.989C468.748 286.989 457.776 275.147 457.311 274.058Z" fill="#EE4248" fill-opacity="1.000000" fill-rule="nonzero"/>
	<path id="Vector" d="M463.534 291.847C462.746 291.373 462.018 290.805 461.367 290.155C459.712 288.678 458.162 287.088 456.727 285.396C455.283 283.712 453.96 281.926 452.77 280.054C452.24 279.299 451.792 278.49 451.434 277.64C452.033 278.333 452.579 279.07 453.066 279.846C454.056 281.221 455.441 283.101 457.113 285.06C458.785 287.019 460.407 288.701 461.614 289.888C462.299 290.495 462.941 291.15 463.534 291.847Z" fill="#263238" fill-opacity="1.000000" fill-rule="nonzero"/>
	<path id="Vector" d="M418.825 309.734C418.841 308.185 419.027 306.642 419.379 305.134C419.573 303.596 419.931 302.084 420.448 300.622C420.432 302.171 420.246 303.714 419.894 305.223C419.701 306.761 419.343 308.273 418.825 309.734Z" fill="#263238" fill-opacity="1.000000" fill-rule="nonzero"/>
	<path id="Vector" d="M422.684 308.784C422.072 307.526 421.62 306.197 421.338 304.827C420.901 303.502 420.619 302.131 420.497 300.741C421.108 301.999 421.56 303.328 421.843 304.698C422.278 306.024 422.56 307.395 422.684 308.784Z" fill="#263238" fill-opacity="1.000000" fill-rule="nonzero"/>
	<path id="Vector" d="M378.974 281.676C379.337 282.076 379.667 282.502 379.964 282.953L382.595 286.534C384.821 289.551 387.928 293.707 391.401 298.248L400.354 309.863L403.055 313.395C403.42 313.812 403.751 314.259 404.044 314.73C403.647 314.354 403.28 313.947 402.946 313.513C402.264 312.712 401.304 311.535 400.117 310.09C397.752 307.172 394.517 303.115 391.044 298.564C387.572 294.013 384.505 289.819 382.358 286.742C381.28 285.208 380.379 283.952 379.845 283.071C379.518 282.63 379.227 282.164 378.974 281.676Z" fill="#263238" fill-opacity="1.000000" fill-rule="nonzero"/>
	<path id="Vector" d="M373.81 301.226C372.764 300.633 371.807 299.893 370.971 299.029C370.02 298.286 369.177 297.413 368.468 296.437C369.52 297.03 370.48 297.773 371.317 298.644C372.27 299.377 373.11 300.247 373.81 301.226Z" fill="#263238" fill-opacity="1.000000" fill-rule="nonzero"/>
	<path id="Vector" d="M370.347 312.376C369.315 314.513 367.982 316.492 366.39 318.252C366.825 317.142 367.422 316.102 368.161 315.166C368.753 314.136 369.489 313.196 370.347 312.376Z" fill="#263238" fill-opacity="1.000000" fill-rule="nonzero"/>
	<path id="Vector" d="M375.215 327.76C375.106 327.849 374.226 326.959 373.236 325.781C372.569 325.11 372.027 324.326 371.633 323.466C371.742 323.377 372.623 324.268 373.612 325.445C374.28 326.115 374.823 326.899 375.215 327.76Z" fill="#263238" fill-opacity="1.000000" fill-rule="nonzero"/>
	<path id="Vector" d="M365.796 337.624C365.172 338.355 364.421 338.968 363.58 339.434C362.834 340.039 361.986 340.508 361.077 340.819C361.701 340.088 362.452 339.475 363.293 339.009C364.04 338.404 364.887 337.935 365.796 337.624Z" fill="#263238" fill-opacity="1.000000" fill-rule="nonzero"/>
	<path id="Vector" d="M378.965 340.236C377.916 339.778 377.008 339.051 376.333 338.128C375.53 337.302 374.96 336.278 374.681 335.16C374.819 335.091 375.541 336.397 376.719 337.772C377.896 339.147 379.054 340.107 378.965 340.236Z" fill="#263238" fill-opacity="1.000000" fill-rule="nonzero"/>
	<path id="Vector" d="M391.242 330.916C390.519 331.862 389.667 332.701 388.71 333.409C387.858 334.241 386.892 334.947 385.84 335.506C386.563 334.56 387.416 333.721 388.373 333.013C389.223 332.179 390.189 331.472 391.242 330.916Z" fill="#263238" fill-opacity="1.000000" fill-rule="nonzero"/>
	<path id="Vector" d="M365.974 348.912C364.284 348.136 362.941 346.762 362.205 345.054C362.324 344.975 363.066 345.924 364.105 346.973C365.143 348.022 366.064 348.813 365.974 348.912Z" fill="#263238" fill-opacity="1.000000" fill-rule="nonzero"/>
	<path id="Vector" d="M393.429 322.101C391.729 323.074 389.769 323.495 387.819 323.308C389.668 322.813 391.54 322.411 393.429 322.101Z" fill="#263238" fill-opacity="1.000000" fill-rule="nonzero"/>
	<path id="Vector" d="M384.287 311.703C384.082 312.909 383.751 314.089 383.298 315.225C382.975 316.367 382.589 317.49 382.14 318.589L382.031 318.589C382.031 318.529 382.091 318.51 382.111 318.51C382.13 318.51 382.111 318.51 382.111 318.618L382.002 318.618C382.118 317.431 382.377 316.261 382.773 315.136C383.075 313.913 383.588 312.751 384.287 311.703Z" fill="#263238" fill-opacity="1.000000" fill-rule="nonzero"/>
	<path id="Vector" d="M388.155 305.104C387.082 304.656 386.081 304.049 385.187 303.303C384.206 302.698 383.322 301.947 382.566 301.077C383.619 301.535 384.602 302.142 385.484 302.878C386.481 303.482 387.382 304.232 388.155 305.104Z" fill="#263238" fill-opacity="1.000000" fill-rule="nonzero"/>
	<path id="Vector" d="M380.241 290.561C379.942 291.542 379.443 292.452 378.776 293.232C378.241 294.106 377.534 294.863 376.699 295.458C377.142 294.546 377.701 293.695 378.361 292.925C378.878 292.056 379.51 291.26 380.241 290.561Z" fill="#263238" fill-opacity="1.000000" fill-rule="nonzero"/>
	<path id="Vector" d="M368.191 288.582C368.025 287.47 368.025 286.34 368.191 285.228C368.203 284.106 368.383 282.992 368.725 281.924C368.903 283.031 368.903 284.16 368.725 285.268C368.722 286.394 368.542 287.512 368.191 288.582Z" fill="#263238" fill-opacity="1.000000" fill-rule="nonzero"/>
	<path id="Vector" d="M363.491 310.387C363.223 309.203 363.116 307.988 363.175 306.776C363.074 305.569 363.141 304.354 363.372 303.165C363.755 305.554 363.795 307.986 363.491 310.387Z" fill="#263238" fill-opacity="1.000000" fill-rule="nonzero"/>
	<path id="Vector" d="M362.838 331.302C362.389 330.66 362.088 329.927 361.958 329.155C361.665 328.43 361.53 327.651 361.562 326.87C362.317 328.232 362.753 329.747 362.838 331.302Z" fill="#263238" fill-opacity="1.000000" fill-rule="nonzero"/>
	<path id="Vector" d="M379.499 272.268C378.713 273.169 377.86 274.009 376.946 274.781C376.155 275.678 375.291 276.508 374.364 277.264C374.902 276.171 375.66 275.201 376.59 274.414C377.398 273.503 378.389 272.771 379.499 272.268Z" fill="#263238" fill-opacity="1.000000" fill-rule="nonzero"/>
	<path id="Vector" d="M372.425 269.903C372.211 268.825 372.171 267.719 372.306 266.628C372.266 265.529 372.4 264.431 372.702 263.373C372.91 264.452 372.95 265.557 372.821 266.648C372.855 267.747 372.721 268.844 372.425 269.903Z" fill="#263238" fill-opacity="1.000000" fill-rule="nonzero"/>
	<path id="Vector" d="M389.758 267.548C387.899 266.424 386.102 265.199 384.376 263.878C386.458 264.614 388.313 265.879 389.758 267.548Z" fill="#263238" fill-opacity="1.000000" fill-rule="nonzero"/>
	<path id="Vector" d="M385.989 279.895C385.715 278.763 385.605 277.597 385.662 276.433C385.556 275.272 385.619 274.102 385.85 272.96C386.238 275.249 386.285 277.583 385.989 279.886L385.989 279.895Z" fill="#263238" fill-opacity="1.000000" fill-rule="nonzero"/>
	<path id="Vector" d="M396.14 287.118C394.143 286.72 392.163 286.245 390.203 285.693C392.28 285.567 394.347 286.063 396.14 287.118Z" fill="#263238" fill-opacity="1.000000" fill-rule="nonzero"/>
	<path id="Vector" d="M396.832 279.757C396.483 277.83 396.483 275.856 396.832 273.93C397.092 274.876 397.189 275.86 397.119 276.838C397.197 277.821 397.1 278.809 396.832 279.757Z" fill="#263238" fill-opacity="1.000000" fill-rule="nonzero"/>
	<path id="Vector" d="M404.569 292.114C404.254 290.917 404.11 289.681 404.143 288.443C404.007 287.215 404.041 285.973 404.242 284.753C404.687 287.18 404.797 289.657 404.569 292.114Z" fill="#263238" fill-opacity="1.000000" fill-rule="nonzero"/>
	<path id="Vector" d="M398.623 296.289C398.514 296.388 397.713 295.656 396.832 294.666C395.952 293.677 395.318 292.787 395.427 292.688C395.536 292.589 396.337 293.321 397.218 294.32C398.098 295.319 398.732 296.2 398.623 296.289Z" fill="#263238" fill-opacity="1.000000" fill-rule="nonzero"/>
	<path id="Vector" d="M406.142 301.988C405.208 302.305 404.229 302.466 403.243 302.462C402.261 302.634 401.257 302.634 400.275 302.462C401.202 302.134 402.18 301.973 403.164 301.988C404.148 301.804 405.158 301.804 406.142 301.988Z" fill="#263238" fill-opacity="1.000000" fill-rule="nonzero"/>
	<path id="Vector" d="M411.801 304.876C411.382 302.729 411.299 300.53 411.554 298.357C411.985 300.503 412.068 302.704 411.801 304.876Z" fill="#263238" fill-opacity="1.000000" fill-rule="nonzero"/>
	<path id="Vector" d="M417.381 315.71C416.194 315.937 414.976 315.937 413.789 315.71C412.583 315.663 411.398 315.384 410.297 314.889C411.488 314.884 412.677 314.99 413.849 315.205C415.04 315.256 416.223 315.425 417.381 315.71Z" fill="#263238" fill-opacity="1.000000" fill-rule="nonzero"/>
	<path id="Vector" d="M426.977 310.714C426.569 312.96 425.822 315.132 424.761 317.154C424.877 316.021 425.168 314.914 425.622 313.87C425.905 312.753 426.362 311.688 426.977 310.714Z" fill="#263238" fill-opacity="1.000000" fill-rule="nonzero"/>
	<path id="Vector" d="M433.893 301.968C431.836 301.752 429.829 301.194 427.957 300.316C430.011 300.544 432.016 301.101 433.893 301.968Z" fill="#263238" fill-opacity="1.000000" fill-rule="nonzero"/>
	<path id="Vector" d="M439.453 305.282C438.864 306.143 438.139 306.901 437.306 307.528C436.582 308.278 435.744 308.909 434.823 309.398C435.406 308.53 436.132 307.767 436.97 307.142C437.693 306.394 438.532 305.766 439.453 305.282Z" fill="#263238" fill-opacity="1.000000" fill-rule="nonzero"/>
	<path id="Vector" d="M441.679 297.1C441.132 296.122 440.795 295.04 440.69 293.924C440.406 292.832 440.359 291.692 440.551 290.58C440.866 291.643 441.082 292.733 441.194 293.835C441.458 294.906 441.62 295.999 441.679 297.1Z" fill="#263238" fill-opacity="1.000000" fill-rule="nonzero"/>
	<path id="Vector" d="M452.265 295.22C450.23 297.252 448.172 299.261 446.092 301.246C447.663 298.793 449.775 296.732 452.265 295.22Z" fill="#263238" fill-opacity="1.000000" fill-rule="nonzero"/>
	<path id="Vector" d="M453.314 291.431C452.178 291.271 451.074 290.937 450.039 290.442C448.941 290.119 447.9 289.629 446.952 288.988C448.084 289.152 449.185 289.485 450.217 289.977C451.316 290.306 452.359 290.796 453.314 291.431Z" fill="#263238" fill-opacity="1.000000" fill-rule="nonzero"/>
	<path id="Vector" d="M452.305 287.365C451.801 286.544 451.45 285.639 451.266 284.694C450.92 283.793 450.735 282.839 450.722 281.874C451.208 282.699 451.543 283.603 451.711 284.545C452.068 285.445 452.269 286.398 452.305 287.365Z" fill="#263238" fill-opacity="1.000000" fill-rule="nonzero"/>
	<path id="Vector" d="M396.921 315.868C396.802 315.957 395.932 314.978 395.061 313.692C394.434 312.961 393.945 312.123 393.617 311.218C394.361 311.827 394.991 312.564 395.477 313.395C396.095 314.131 396.583 314.968 396.921 315.868Z" fill="#263238" fill-opacity="1.000000" fill-rule="nonzero"/>
	<path id="Vector" d="M472.349 365.711C472.307 365.573 472.28 365.43 472.27 365.286C472.23 364.989 472.171 364.573 472.091 364.039C471.953 362.921 471.735 361.309 471.468 359.251C470.904 355.096 470.103 349.07 468.906 341.66C467.709 334.25 466.116 325.455 463.85 315.799C463.618 314.587 463.222 313.412 462.673 312.306C462.051 311.216 461.248 310.239 460.298 309.417C458.283 307.749 455.707 306.914 453.096 307.083C451.764 307.157 450.463 307.511 449.277 308.121C448.086 308.793 446.951 309.561 445.884 310.417L439.077 315.472C429.916 322.348 421.338 329.086 413.681 335.408C406.023 341.729 399.345 347.646 393.755 352.662C390.926 355.096 387.908 357.045 384.851 357.361C383.449 357.52 382.029 357.347 380.706 356.857C379.605 356.441 378.569 355.872 377.629 355.165C376.342 354.186 375.15 353.09 374.067 351.89L373.226 350.96C373.124 350.857 373.031 350.744 372.949 350.624C373.063 350.71 373.166 350.81 373.256 350.92L374.136 351.821C375.25 352.981 376.458 354.047 377.748 355.006C378.683 355.681 379.704 356.227 380.785 356.629C382.078 357.088 383.46 357.241 384.821 357.074C387.789 356.748 390.757 354.818 393.528 352.385C399.078 347.349 405.736 341.363 413.394 335.042C421.051 328.72 429.609 321.933 438.78 315.057L445.587 310.001C446.68 309.131 447.841 308.35 449.059 307.666C450.306 307.023 451.675 306.652 453.076 306.578C455.815 306.405 458.516 307.287 460.625 309.042C461.624 309.901 462.465 310.929 463.108 312.079C463.675 313.222 464.084 314.437 464.325 315.69C466.571 325.376 468.114 334.191 469.272 341.601C470.429 349.011 471.171 355.056 471.676 359.221C471.903 361.289 472.082 362.901 472.21 364.029C472.21 364.564 472.299 365.019 472.329 365.286C472.349 365.427 472.355 365.569 472.349 365.711Z" fill="#263238" fill-opacity="1.000000" fill-rule="nonzero"/>
	<path id="Vector" d="M483.904 365.157C483.584 365.256 483.251 365.309 482.915 365.315C482.272 365.385 481.342 365.464 480.194 365.543C477.889 365.701 474.713 365.87 471.201 366.018L462.208 366.404L459.477 366.503C459.149 366.541 458.817 366.541 458.488 366.503C458.808 366.397 459.141 366.337 459.477 366.325C460.12 366.245 461.05 366.156 462.198 366.057C464.503 365.869 467.679 365.682 471.191 365.523L480.194 365.197L482.925 365.137C483.251 365.103 483.58 365.11 483.904 365.157Z" fill="#263238" fill-opacity="1.000000" fill-rule="nonzero"/>
	<path id="Vector" d="M458.547 316.739C456.295 320.406 453.359 323.606 449.9 326.167C449.802 326.048 451.879 324.119 454.293 321.517C456.707 318.915 458.399 316.65 458.547 316.739Z" fill="#263238" fill-opacity="1.000000" fill-rule="nonzero"/>
	<path id="Vector" d="M459.507 319.746C458.173 320.764 456.764 321.68 455.292 322.487C453.909 323.448 452.453 324.301 450.939 325.039C452.163 323.877 453.534 322.88 455.015 322.071C456.406 321.106 457.916 320.325 459.507 319.746Z" fill="#263238" fill-opacity="1.000000" fill-rule="nonzero"/>
	<path id="Vector" d="M542.859 367.71C542.659 367.732 542.456 367.732 542.256 367.71L540.515 367.611L534.183 367.007L513.317 364.831C505.165 363.98 497.805 363.03 492.452 362.763C489.781 362.624 487.604 362.634 486.11 362.694L484.389 362.763C484.185 362.788 483.979 362.788 483.776 362.763C483.974 362.714 484.176 362.681 484.379 362.664C484.765 362.605 485.368 362.555 486.101 362.486C488.221 362.347 490.348 362.317 492.472 362.397C497.854 362.575 505.225 363.465 513.367 364.316L534.232 366.621L540.554 367.383L542.266 367.611C542.467 367.62 542.666 367.654 542.859 367.71Z" fill="#455A64" fill-opacity="1.000000" fill-rule="nonzero"/>
	<path id="Vector" d="M541.603 378.771C541.464 378.771 541.91 373.824 542.592 367.68C543.275 361.536 543.967 356.639 544.106 356.659C544.245 356.678 543.799 361.605 543.117 367.739C542.434 373.873 541.741 378.78 541.603 378.771Z" fill="#455A64" fill-opacity="1.000000" fill-rule="nonzero"/>
</svg>
